<?xml version="1.0" ?>
<svg xmlns="http://www.w3.org/2000/svg" viewBox="0 0 1072 187" fill="#0b57d0">
	<path d="M 1015.0,168.5 L 1014.0,168.5 L 1013.0,168.5 L 1012.0,168.5 L 1011.0,168.5 L 1010.0,168.5 L 1009.0,168.5 L 1008.0,168.5 L 1007.0,168.5 L 1006.0,168.5 L 1005.0,168.5 L 1004.0,168.5 L 1003.0,168.5 L 1002.0,168.5 L 1001.0,168.5 L 1000.0,168.5 L 999.0,168.5 L 998.0,168.5 L 997.0,168.5 L 996.0,168.5 L 995.0,168.5 L 994.0,168.5 L 993.0,168.5 L 992.0,168.5 L 991.0,168.5 L 990.0,168.5 L 989.0,168.5 L 988.0,168.5 L 987.0,168.5 L 986.0,168.5 L 985.0,168.5 L 984.0,168.5 L 983.0,168.5 L 982.0,168.5 L 981.0,168.5 L 980.5,168.0 L 980.0,167.5 L 979.5,167.0 L 979.5,166.0 L 979.0,165.5 L 978.5,165.0 L 978.0,164.5 L 977.5,164.0 L 977.5,163.0 L 977.0,162.5 L 976.5,162.0 L 976.0,161.5 L 975.5,161.0 L 975.5,160.0 L 975.0,159.5 L 974.5,159.0 L 974.0,158.5 L 973.5,158.0 L 973.5,157.0 L 973.0,156.5 L 972.5,156.0 L 972.0,155.5 L 971.5,155.0 L 971.5,154.0 L 971.0,153.5 L 970.5,153.0 L 970.0,152.5 L 969.5,152.0 L 969.0,151.5 L 968.5,151.0 L 968.5,150.0 L 968.0,149.5 L 967.5,149.0 L 967.0,148.5 L 966.5,148.0 L 966.5,147.0 L 966.0,146.5 L 965.5,146.0 L 965.0,145.5 L 964.5,145.0 L 964.5,144.0 L 964.0,143.5 L 963.5,143.0 L 963.0,142.5 L 962.5,142.0 L 962.5,141.0 L 962.0,140.5 L 961.5,140.0 L 961.0,139.5 L 960.5,139.0 L 960.5,138.0 L 960.0,137.5 L 959.5,137.0 L 959.0,136.5 L 958.5,136.0 L 958.5,135.0 L 958.0,134.5 L 957.5,134.0 L 957.0,133.5 L 956.5,133.0 L 956.5,132.0 L 956.0,131.5 L 955.5,131.0 L 955.0,130.5 L 954.5,130.0 L 954.5,129.0 L 954.0,128.5 L 953.5,128.0 L 953.0,127.5 L 952.5,127.0 L 952.5,126.0 L 952.0,125.5 L 951.5,125.0 L 951.0,124.5 L 950.5,124.0 L 950.5,123.0 L 950.0,122.5 L 949.5,122.0 L 949.0,121.5 L 948.5,121.0 L 948.5,120.0 L 948.0,119.5 L 947.5,119.0 L 947.0,118.5 L 946.5,118.0 L 946.0,117.5 L 945.5,118.0 L 945.0,118.5 L 944.5,119.0 L 944.0,119.5 L 943.5,120.0 L 943.5,121.0 L 943.0,121.5 L 942.5,122.0 L 942.0,122.5 L 941.5,123.0 L 941.5,124.0 L 941.0,124.5 L 940.5,125.0 L 940.0,125.5 L 939.5,126.0 L 939.5,127.0 L 939.0,127.5 L 938.5,128.0 L 938.0,128.5 L 937.5,129.0 L 937.5,130.0 L 937.0,130.5 L 936.5,131.0 L 936.0,131.5 L 935.5,132.0 L 935.5,133.0 L 935.0,133.5 L 934.5,134.0 L 934.0,134.5 L 933.5,135.0 L 933.5,136.0 L 933.0,136.5 L 932.5,137.0 L 932.0,137.5 L 931.5,138.0 L 931.5,139.0 L 931.0,139.5 L 930.5,140.0 L 930.0,140.5 L 929.5,141.0 L 929.5,142.0 L 929.0,142.5 L 928.5,143.0 L 928.0,143.5 L 927.5,144.0 L 927.5,145.0 L 927.0,145.5 L 926.5,146.0 L 926.0,146.5 L 925.5,147.0 L 925.5,148.0 L 925.0,148.5 L 924.5,149.0 L 924.0,149.5 L 923.5,150.0 L 923.5,151.0 L 923.0,151.5 L 922.5,152.0 L 922.0,152.5 L 921.5,153.0 L 921.0,153.5 L 920.5,154.0 L 920.5,155.0 L 920.0,155.5 L 919.5,156.0 L 919.0,156.5 L 918.5,157.0 L 918.5,158.0 L 918.0,158.5 L 917.5,159.0 L 917.0,159.5 L 916.5,160.0 L 916.0,160.5 L 915.5,161.0 L 915.5,162.0 L 915.0,162.5 L 914.5,163.0 L 914.0,163.5 L 913.5,164.0 L 913.5,165.0 L 913.0,165.5 L 912.5,166.0 L 912.0,166.5 L 911.5,167.0 L 911.5,168.0 L 911.0,168.5 L 910.0,168.5 L 909.0,168.5 L 908.0,168.5 L 907.0,168.5 L 906.0,168.5 L 905.0,168.5 L 904.0,168.5 L 903.0,168.5 L 902.0,168.5 L 901.0,168.5 L 900.0,168.5 L 899.0,168.5 L 898.0,168.5 L 897.0,168.5 L 896.0,168.5 L 895.0,168.5 L 894.0,168.5 L 893.0,168.5 L 892.0,168.5 L 891.0,168.5 L 890.0,168.5 L 889.0,168.5 L 888.0,168.5 L 887.0,168.5 L 886.0,168.5 L 885.0,168.5 L 884.0,168.5 L 883.0,168.5 L 882.0,168.5 L 881.0,168.5 L 880.0,168.5 L 879.0,168.5 L 878.0,168.5 L 877.0,168.5 L 876.5,168.0 L 876.5,167.0 L 877.0,166.5 L 877.5,166.0 L 878.0,165.5 L 878.5,165.0 L 878.5,164.0 L 879.0,163.5 L 879.5,163.0 L 880.0,162.5 L 880.5,162.0 L 880.5,161.0 L 881.0,160.5 L 881.5,160.0 L 882.0,159.5 L 882.5,159.0 L 883.0,158.5 L 883.5,158.0 L 883.5,157.0 L 884.0,156.5 L 884.5,156.0 L 885.0,155.5 L 885.5,155.0 L 885.5,154.0 L 886.0,153.5 L 886.5,153.0 L 887.0,152.5 L 887.5,152.0 L 887.5,151.0 L 888.0,150.5 L 888.5,150.0 L 889.0,149.5 L 889.5,149.0 L 890.0,148.5 L 890.5,148.0 L 890.5,147.0 L 891.0,146.5 L 891.5,146.0 L 892.0,145.5 L 892.5,145.0 L 892.5,144.0 L 893.0,143.5 L 893.5,143.0 L 894.0,142.5 L 894.5,142.0 L 894.5,141.0 L 895.0,140.5 L 895.5,140.0 L 896.0,139.5 L 896.5,139.0 L 896.5,138.0 L 897.0,137.5 L 897.5,137.0 L 898.0,136.5 L 898.5,136.0 L 899.0,135.5 L 899.5,135.0 L 899.5,134.0 L 900.0,133.5 L 900.5,133.0 L 901.0,132.5 L 901.5,132.0 L 901.5,131.0 L 902.0,130.5 L 902.5,130.0 L 903.0,129.5 L 903.5,129.0 L 904.0,128.5 L 904.5,128.0 L 904.5,127.0 L 905.0,126.5 L 905.5,126.0 L 906.0,125.5 L 906.5,125.0 L 907.0,124.5 L 907.5,124.0 L 907.5,123.0 L 908.0,122.5 L 908.5,122.0 L 909.0,121.5 L 909.5,121.0 L 909.5,120.0 L 910.0,119.5 L 910.5,119.0 L 911.0,118.5 L 911.5,118.0 L 912.0,117.5 L 912.5,117.0 L 912.5,116.0 L 913.0,115.5 L 913.5,115.0 L 914.0,114.5 L 914.5,114.0 L 914.5,113.0 L 915.0,112.5 L 915.5,112.0 L 916.0,111.5 L 916.5,111.0 L 917.0,110.5 L 917.5,110.0 L 917.5,109.0 L 918.0,108.5 L 918.5,108.0 L 919.0,107.5 L 919.5,107.0 L 920.0,106.5 L 920.5,106.0 L 920.5,105.0 L 921.0,104.5 L 921.5,104.0 L 922.0,103.5 L 922.5,103.0 L 923.0,102.5 L 923.5,102.0 L 923.5,101.0 L 924.0,100.5 L 924.5,100.0 L 925.0,99.5 L 925.5,99.0 L 925.5,98.0 L 926.0,97.5 L 926.5,97.0 L 927.0,96.5 L 927.5,96.0 L 927.0,95.5 L 926.5,95.0 L 926.0,94.5 L 925.5,94.0 L 925.5,93.0 L 925.0,92.5 L 924.5,92.0 L 924.0,91.5 L 923.5,91.0 L 923.5,90.0 L 923.0,89.5 L 922.5,89.0 L 922.0,88.5 L 921.5,88.0 L 921.5,87.0 L 921.0,86.5 L 920.5,86.0 L 920.0,85.5 L 919.5,85.0 L 919.0,84.5 L 918.5,84.0 L 918.5,83.0 L 918.0,82.5 L 917.5,82.0 L 917.0,81.5 L 916.5,81.0 L 916.5,80.0 L 916.0,79.5 L 915.5,79.0 L 915.0,78.5 L 914.5,78.0 L 914.5,77.0 L 914.0,76.5 L 913.5,76.0 L 913.0,75.5 L 912.5,75.0 L 912.0,74.5 L 911.5,74.0 L 911.5,73.0 L 911.0,72.5 L 910.5,72.0 L 910.0,71.5 L 909.5,71.0 L 909.5,70.0 L 909.0,69.5 L 908.5,69.0 L 908.0,68.5 L 907.5,68.0 L 907.5,67.0 L 907.0,66.5 L 906.5,66.0 L 906.0,65.5 L 905.5,65.0 L 905.5,64.0 L 905.0,63.5 L 904.5,63.0 L 904.0,62.5 L 903.5,62.0 L 903.0,61.5 L 902.5,61.0 L 902.5,60.0 L 902.0,59.5 L 901.5,59.0 L 901.0,58.5 L 900.5,58.0 L 900.5,57.0 L 900.0,56.5 L 899.5,56.0 L 899.0,55.5 L 898.5,55.0 L 898.5,54.0 L 898.0,53.5 L 897.5,53.0 L 897.0,52.5 L 896.5,52.0 L 896.5,51.0 L 896.0,50.5 L 895.5,50.0 L 895.0,49.5 L 894.5,49.0 L 894.0,48.5 L 893.5,48.0 L 893.5,47.0 L 893.0,46.5 L 892.5,46.0 L 892.0,45.5 L 891.5,45.0 L 891.5,44.0 L 891.0,43.5 L 890.5,43.0 L 890.0,42.5 L 889.5,42.0 L 889.5,41.0 L 889.0,40.5 L 888.5,40.0 L 888.0,39.5 L 887.5,39.0 L 887.5,38.0 L 887.0,37.5 L 886.5,37.0 L 886.0,36.5 L 885.5,36.0 L 885.5,35.0 L 885.0,34.5 L 884.5,34.0 L 884.0,33.5 L 883.5,33.0 L 883.0,32.5 L 882.5,32.0 L 882.5,31.0 L 882.0,30.5 L 881.5,30.0 L 881.0,29.5 L 880.5,29.0 L 880.5,28.0 L 880.0,27.5 L 879.5,27.0 L 880.0,26.5 L 881.0,26.5 L 882.0,26.5 L 883.0,26.5 L 884.0,26.5 L 885.0,26.5 L 886.0,26.5 L 887.0,26.5 L 888.0,26.5 L 889.0,26.5 L 890.0,26.5 L 891.0,26.5 L 892.0,26.5 L 893.0,26.5 L 894.0,26.5 L 895.0,26.5 L 896.0,26.5 L 897.0,26.5 L 898.0,26.5 L 899.0,26.5 L 900.0,26.5 L 901.0,26.5 L 902.0,26.5 L 903.0,26.5 L 904.0,26.5 L 905.0,26.5 L 906.0,26.5 L 907.0,26.5 L 908.0,26.5 L 909.0,26.5 L 910.0,26.5 L 911.0,26.5 L 912.0,26.5 L 913.0,26.5 L 914.0,26.5 L 914.5,27.0 L 915.0,27.5 L 915.5,28.0 L 915.5,29.0 L 916.0,29.5 L 916.5,30.0 L 917.0,30.5 L 917.5,31.0 L 917.5,32.0 L 918.0,32.5 L 918.5,33.0 L 919.0,33.5 L 919.5,34.0 L 919.5,35.0 L 920.0,35.5 L 920.5,36.0 L 921.0,36.5 L 921.5,37.0 L 921.5,38.0 L 922.0,38.5 L 922.5,39.0 L 923.0,39.5 L 923.5,40.0 L 923.5,41.0 L 924.0,41.5 L 924.5,42.0 L 925.0,42.5 L 925.5,43.0 L 925.5,44.0 L 926.0,44.5 L 926.5,45.0 L 927.0,45.5 L 927.5,46.0 L 927.5,47.0 L 928.0,47.5 L 928.5,48.0 L 929.0,48.5 L 929.5,49.0 L 929.5,50.0 L 930.0,50.5 L 930.5,51.0 L 931.0,51.5 L 931.5,52.0 L 931.5,53.0 L 932.0,53.5 L 932.5,54.0 L 933.0,54.5 L 933.5,55.0 L 933.5,56.0 L 934.0,56.5 L 934.5,57.0 L 935.0,57.5 L 935.5,58.0 L 936.0,58.5 L 936.5,59.0 L 936.5,60.0 L 937.0,60.5 L 937.5,61.0 L 938.0,61.5 L 938.5,62.0 L 938.5,63.0 L 939.0,63.5 L 939.5,64.0 L 940.0,64.5 L 940.5,65.0 L 940.5,66.0 L 941.0,66.5 L 941.5,67.0 L 942.0,67.5 L 942.5,68.0 L 942.5,69.0 L 943.0,69.5 L 943.5,70.0 L 944.0,70.5 L 944.5,71.0 L 944.5,72.0 L 945.0,72.5 L 945.5,73.0 L 946.0,73.5 L 946.5,74.0 L 947.0,74.5 L 947.5,74.0 L 948.0,73.5 L 948.5,73.0 L 949.0,72.5 L 949.5,72.0 L 949.5,71.0 L 950.0,70.5 L 950.5,70.0 L 951.0,69.5 L 951.5,69.0 L 951.5,68.0 L 952.0,67.5 L 952.5,67.0 L 953.0,66.5 L 953.5,66.0 L 954.0,65.5 L 954.5,65.0 L 954.5,64.0 L 955.0,63.5 L 955.5,63.0 L 956.0,62.5 L 956.5,62.0 L 956.5,61.0 L 957.0,60.5 L 957.5,60.0 L 958.0,59.5 L 958.5,59.0 L 958.5,58.0 L 959.0,57.5 L 959.5,57.0 L 960.0,56.5 L 960.5,56.0 L 960.5,55.0 L 961.0,54.5 L 961.5,54.0 L 962.0,53.5 L 962.5,53.0 L 962.5,52.0 L 963.0,51.5 L 963.5,51.0 L 964.0,50.5 L 964.5,50.0 L 964.5,49.0 L 965.0,48.5 L 965.5,48.0 L 966.0,47.5 L 966.5,47.0 L 966.5,46.0 L 967.0,45.5 L 967.5,45.0 L 968.0,44.5 L 968.5,44.0 L 969.0,43.5 L 969.5,43.0 L 969.5,42.0 L 970.0,41.5 L 970.5,41.0 L 971.0,40.5 L 971.5,40.0 L 971.5,39.0 L 972.0,38.5 L 972.5,38.0 L 973.0,37.5 L 973.5,37.0 L 973.5,36.0 L 974.0,35.5 L 974.5,35.0 L 975.0,34.5 L 975.5,34.0 L 975.5,33.0 L 976.0,32.5 L 976.5,32.0 L 977.0,31.5 L 977.5,31.0 L 977.5,30.0 L 978.0,29.5 L 978.5,29.0 L 979.0,28.5 L 979.5,28.0 L 980.0,27.5 L 981.0,27.5 L 982.0,27.5 L 983.0,27.5 L 984.0,27.5 L 985.0,27.5 L 986.0,27.5 L 987.0,27.5 L 988.0,27.5 L 989.0,27.5 L 990.0,27.5 L 991.0,27.5 L 992.0,27.5 L 993.0,27.5 L 994.0,27.5 L 995.0,27.5 L 996.0,27.5 L 997.0,27.5 L 998.0,27.5 L 999.0,27.5 L 1000.0,27.5 L 1001.0,27.5 L 1002.0,27.5 L 1003.0,27.5 L 1004.0,27.5 L 1005.0,27.5 L 1006.0,27.5 L 1007.0,27.5 L 1008.0,27.5 L 1009.0,27.5 L 1010.0,27.5 L 1011.0,27.5 L 1012.0,27.5 L 1013.0,27.5 L 1013.5,28.0 L 1013.0,28.5 L 1012.5,29.0 L 1012.0,29.5 L 1011.5,30.0 L 1011.0,30.5 L 1010.5,31.0 L 1010.5,32.0 L 1010.0,32.5 L 1009.5,33.0 L 1009.0,33.5 L 1008.5,34.0 L 1008.5,35.0 L 1008.0,35.5 L 1007.5,36.0 L 1007.0,36.5 L 1006.5,37.0 L 1006.5,38.0 L 1006.0,38.5 L 1005.5,39.0 L 1005.0,39.5 L 1004.5,40.0 L 1004.5,41.0 L 1004.0,41.5 L 1003.5,42.0 L 1003.0,42.5 L 1002.5,43.0 L 1002.0,43.5 L 1001.5,44.0 L 1001.5,45.0 L 1001.0,45.5 L 1000.5,46.0 L 1000.0,46.5 L 999.5,47.0 L 999.5,48.0 L 999.0,48.5 L 998.5,49.0 L 998.0,49.5 L 997.5,50.0 L 997.5,51.0 L 997.0,51.5 L 996.5,52.0 L 996.0,52.5 L 995.5,53.0 L 995.0,53.5 L 994.5,54.0 L 994.5,55.0 L 994.0,55.5 L 993.5,56.0 L 993.0,56.5 L 992.5,57.0 L 992.5,58.0 L 992.0,58.5 L 991.5,59.0 L 991.0,59.5 L 990.5,60.0 L 990.5,61.0 L 990.0,61.5 L 989.5,62.0 L 989.0,62.5 L 988.5,63.0 L 988.0,63.5 L 987.5,64.0 L 987.5,65.0 L 987.0,65.5 L 986.5,66.0 L 986.0,66.5 L 985.5,67.0 L 985.5,68.0 L 985.0,68.5 L 984.5,69.0 L 984.0,69.5 L 983.5,70.0 L 983.0,70.5 L 982.5,71.0 L 982.5,72.0 L 982.0,72.5 L 981.5,73.0 L 981.0,73.5 L 980.5,74.0 L 980.5,75.0 L 980.0,75.5 L 979.5,76.0 L 979.0,76.5 L 978.5,77.0 L 978.0,77.5 L 977.5,78.0 L 977.5,79.0 L 977.0,79.5 L 976.5,80.0 L 976.0,80.5 L 975.5,81.0 L 975.5,82.0 L 975.0,82.5 L 974.5,83.0 L 974.0,83.5 L 973.5,84.0 L 973.5,85.0 L 973.0,85.5 L 972.5,86.0 L 972.0,86.5 L 971.5,87.0 L 971.0,87.5 L 970.5,88.0 L 970.5,89.0 L 970.0,89.5 L 969.5,90.0 L 969.0,90.5 L 968.5,91.0 L 968.5,92.0 L 968.0,92.5 L 967.5,93.0 L 967.0,93.5 L 966.5,94.0 L 966.0,94.5 L 965.5,95.0 L 965.5,96.0 L 966.0,96.5 L 966.5,97.0 L 967.0,97.5 L 967.5,98.0 L 967.5,99.0 L 968.0,99.5 L 968.5,100.0 L 969.0,100.5 L 969.5,101.0 L 969.5,102.0 L 970.0,102.5 L 970.5,103.0 L 971.0,103.5 L 971.5,104.0 L 972.0,104.5 L 972.5,105.0 L 972.5,106.0 L 973.0,106.5 L 973.5,107.0 L 974.0,107.5 L 974.5,108.0 L 974.5,109.0 L 975.0,109.5 L 975.5,110.0 L 976.0,110.5 L 976.5,111.0 L 976.5,112.0 L 977.0,112.5 L 977.5,113.0 L 978.0,113.5 L 978.5,114.0 L 978.5,115.0 L 979.0,115.5 L 979.5,116.0 L 980.0,116.5 L 980.5,117.0 L 981.0,117.5 L 981.5,118.0 L 981.5,119.0 L 982.0,119.5 L 982.5,120.0 L 983.0,120.5 L 983.5,121.0 L 983.5,122.0 L 984.0,122.5 L 984.5,123.0 L 985.0,123.5 L 985.5,124.0 L 986.0,124.5 L 986.5,125.0 L 986.5,126.0 L 987.0,126.5 L 987.5,127.0 L 988.0,127.5 L 988.5,128.0 L 988.5,129.0 L 989.0,129.5 L 989.5,130.0 L 990.0,130.5 L 990.5,131.0 L 990.5,132.0 L 991.0,132.5 L 991.5,133.0 L 992.0,133.5 L 992.5,134.0 L 992.5,135.0 L 993.0,135.5 L 993.5,136.0 L 994.0,136.5 L 994.5,137.0 L 994.5,138.0 L 995.0,138.5 L 995.5,139.0 L 996.0,139.5 L 996.5,140.0 L 997.0,140.5 L 997.5,141.0 L 997.5,142.0 L 998.0,142.5 L 998.5,143.0 L 999.0,143.5 L 999.5,144.0 L 999.5,145.0 L 1000.0,145.5 L 1000.5,146.0 L 1001.0,146.5 L 1001.5,147.0 L 1001.5,148.0 L 1002.0,148.5 L 1002.5,149.0 L 1003.0,149.5 L 1003.5,150.0 L 1004.0,150.5 L 1004.5,151.0 L 1004.5,152.0 L 1005.0,152.5 L 1005.5,153.0 L 1006.0,153.5 L 1006.5,154.0 L 1006.5,155.0 L 1007.0,155.5 L 1007.5,156.0 L 1008.0,156.5 L 1008.5,157.0 L 1008.5,158.0 L 1009.0,158.5 L 1009.5,159.0 L 1010.0,159.5 L 1010.5,160.0 L 1010.5,161.0 L 1011.0,161.5 L 1011.5,162.0 L 1012.0,162.5 L 1012.5,163.0 L 1013.0,163.5 L 1013.5,164.0 L 1013.5,165.0 L 1014.0,165.5 L 1014.5,166.0 L 1015.0,166.5 L 1015.5,167.0 L 1015.5,168.0 L 1015.0,168.5 Z" fill="black"/>
	<path d="M 177.0,168.5 L 176.0,168.5 L 175.0,168.5 L 174.0,168.5 L 173.0,168.5 L 172.0,168.5 L 171.0,168.5 L 170.0,168.5 L 169.0,168.5 L 168.0,168.5 L 167.0,168.5 L 166.0,168.5 L 165.0,168.5 L 164.0,168.5 L 163.0,168.5 L 162.0,168.5 L 161.0,168.5 L 160.0,168.5 L 159.0,168.5 L 158.0,168.5 L 157.0,168.5 L 156.0,168.5 L 155.0,168.5 L 154.0,168.5 L 153.0,168.5 L 152.0,168.5 L 151.0,168.5 L 150.0,168.5 L 149.0,168.5 L 148.0,168.5 L 147.0,168.5 L 146.0,168.5 L 145.0,168.5 L 144.5,168.0 L 144.5,167.0 L 144.0,166.5 L 143.5,166.0 L 143.5,165.0 L 143.5,164.0 L 143.0,163.5 L 142.5,163.0 L 142.5,162.0 L 142.0,161.5 L 141.5,161.0 L 141.5,160.0 L 141.0,159.5 L 140.5,159.0 L 140.5,158.0 L 140.5,157.0 L 140.0,156.5 L 139.5,156.0 L 139.5,155.0 L 139.0,154.5 L 138.5,154.0 L 138.5,153.0 L 138.0,152.5 L 137.5,152.0 L 137.5,151.0 L 137.5,150.0 L 137.0,149.5 L 136.5,149.0 L 136.5,148.0 L 136.0,147.5 L 135.5,147.0 L 135.5,146.0 L 135.5,145.0 L 135.0,144.5 L 134.5,144.0 L 134.5,143.0 L 134.0,142.5 L 133.5,142.0 L 133.5,141.0 L 133.0,140.5 L 132.5,140.0 L 132.0,139.5 L 131.0,139.5 L 130.0,139.5 L 129.0,139.5 L 128.0,139.5 L 127.0,139.5 L 126.0,139.5 L 125.0,139.5 L 124.0,139.5 L 123.0,139.5 L 122.0,139.5 L 121.0,139.5 L 120.0,139.5 L 119.0,139.5 L 118.0,139.5 L 117.0,139.5 L 116.0,139.5 L 115.0,139.5 L 114.0,139.5 L 113.0,139.5 L 112.0,139.5 L 111.0,139.5 L 110.0,139.5 L 109.0,139.5 L 108.0,139.5 L 107.0,139.5 L 106.0,139.5 L 105.0,139.5 L 104.0,139.5 L 103.0,139.5 L 102.0,139.5 L 101.0,139.5 L 100.0,139.5 L 99.0,139.5 L 98.0,139.5 L 97.0,139.5 L 96.0,139.5 L 95.0,139.5 L 94.0,139.5 L 93.0,139.5 L 92.0,139.5 L 91.0,139.5 L 90.0,139.5 L 89.0,139.5 L 88.0,139.5 L 87.0,139.5 L 86.0,139.5 L 85.0,139.5 L 84.0,139.5 L 83.0,139.5 L 82.0,139.5 L 81.0,139.5 L 80.0,139.5 L 79.0,139.5 L 78.0,139.5 L 77.0,139.5 L 76.5,139.0 L 76.5,138.0 L 77.0,137.5 L 77.5,137.0 L 77.5,136.0 L 77.5,135.0 L 78.0,134.5 L 78.5,134.0 L 78.5,133.0 L 78.5,132.0 L 79.0,131.5 L 79.5,131.0 L 79.5,130.0 L 80.0,129.5 L 80.5,129.0 L 80.5,128.0 L 80.5,127.0 L 81.0,126.5 L 81.5,126.0 L 81.5,125.0 L 81.5,124.0 L 82.0,123.5 L 82.5,123.0 L 82.5,122.0 L 83.0,121.5 L 83.5,121.0 L 83.5,120.0 L 83.5,119.0 L 84.0,118.5 L 84.5,118.0 L 84.5,117.0 L 85.0,116.5 L 85.5,116.0 L 86.0,115.5 L 87.0,115.5 L 88.0,115.5 L 89.0,115.5 L 90.0,115.5 L 91.0,115.5 L 92.0,115.5 L 93.0,115.5 L 94.0,115.5 L 95.0,115.5 L 96.0,115.5 L 97.0,115.5 L 98.0,115.5 L 99.0,115.5 L 100.0,115.5 L 101.0,115.5 L 102.0,115.5 L 103.0,115.5 L 104.0,115.5 L 105.0,115.5 L 106.0,115.5 L 107.0,115.5 L 108.0,115.5 L 109.0,115.5 L 110.0,115.5 L 111.0,115.5 L 112.0,115.5 L 113.0,115.5 L 114.0,115.5 L 115.0,115.5 L 116.0,115.5 L 117.0,115.5 L 118.0,115.5 L 119.0,115.5 L 120.0,115.5 L 121.0,115.5 L 121.5,115.0 L 121.5,114.0 L 121.5,113.0 L 121.0,112.5 L 120.5,112.0 L 120.5,111.0 L 120.0,110.5 L 119.5,110.0 L 119.5,109.0 L 119.5,108.0 L 119.0,107.5 L 118.5,107.0 L 118.5,106.0 L 118.0,105.5 L 117.5,105.0 L 117.5,104.0 L 117.0,103.5 L 116.5,103.0 L 116.5,102.0 L 116.5,101.0 L 116.0,100.5 L 115.5,100.0 L 115.5,99.0 L 115.0,98.5 L 114.5,98.0 L 114.5,97.0 L 114.5,96.0 L 114.0,95.5 L 113.5,95.0 L 113.5,94.0 L 113.0,93.5 L 112.5,93.0 L 112.5,92.0 L 112.0,91.5 L 111.5,91.0 L 111.5,90.0 L 111.5,89.0 L 111.0,88.5 L 110.5,88.0 L 110.5,87.0 L 110.0,86.5 L 109.5,86.0 L 109.5,85.0 L 109.0,84.5 L 108.5,84.0 L 108.5,83.0 L 108.5,82.0 L 108.0,81.5 L 107.5,81.0 L 107.5,80.0 L 107.0,79.5 L 106.5,79.0 L 106.5,78.0 L 106.0,77.5 L 105.5,77.0 L 105.5,76.0 L 105.5,75.0 L 105.0,74.5 L 104.5,74.0 L 104.5,73.0 L 104.0,72.5 L 103.5,72.0 L 103.5,71.0 L 103.0,70.5 L 102.5,70.0 L 102.5,69.0 L 102.5,68.0 L 102.0,67.5 L 101.5,67.0 L 101.5,66.0 L 101.0,65.5 L 100.5,65.0 L 100.5,64.0 L 100.0,63.5 L 99.5,63.0 L 99.5,62.0 L 99.5,61.0 L 99.0,60.5 L 98.5,60.0 L 98.0,59.5 L 97.5,60.0 L 97.0,60.5 L 96.5,61.0 L 96.5,62.0 L 96.0,62.5 L 95.5,63.0 L 95.5,64.0 L 95.5,65.0 L 95.0,65.5 L 94.5,66.0 L 94.5,67.0 L 94.0,67.5 L 93.5,68.0 L 93.5,69.0 L 93.5,70.0 L 93.0,70.5 L 92.5,71.0 L 92.5,72.0 L 92.0,72.5 L 91.5,73.0 L 91.5,74.0 L 91.0,74.5 L 90.5,75.0 L 90.5,76.0 L 90.5,77.0 L 90.0,77.5 L 89.5,78.0 L 89.5,79.0 L 89.0,79.5 L 88.5,80.0 L 88.5,81.0 L 88.0,81.5 L 87.5,82.0 L 87.5,83.0 L 87.0,83.5 L 86.5,84.0 L 86.5,85.0 L 86.5,86.0 L 86.0,86.5 L 85.5,87.0 L 85.5,88.0 L 85.0,88.5 L 84.5,89.0 L 84.5,90.0 L 84.0,90.5 L 83.5,91.0 L 83.5,92.0 L 83.0,92.5 L 82.5,93.0 L 82.5,94.0 L 82.0,94.5 L 81.5,95.0 L 81.5,96.0 L 81.5,97.0 L 81.0,97.5 L 80.5,98.0 L 80.5,99.0 L 80.0,99.5 L 79.5,100.0 L 79.5,101.0 L 79.0,101.5 L 78.5,102.0 L 78.5,103.0 L 78.5,104.0 L 78.0,104.5 L 77.5,105.0 L 77.5,106.0 L 77.0,106.5 L 76.5,107.0 L 76.5,108.0 L 76.0,108.5 L 75.5,109.0 L 75.5,110.0 L 75.5,111.0 L 75.0,111.5 L 74.5,112.0 L 74.5,113.0 L 74.0,113.5 L 73.5,114.0 L 73.5,115.0 L 73.0,115.5 L 72.5,116.0 L 72.5,117.0 L 72.5,118.0 L 72.0,118.5 L 71.5,119.0 L 71.5,120.0 L 71.0,120.5 L 70.5,121.0 L 70.5,122.0 L 70.0,122.5 L 69.5,123.0 L 69.5,124.0 L 69.0,124.5 L 68.5,125.0 L 68.5,126.0 L 68.5,127.0 L 68.0,127.5 L 67.5,128.0 L 67.5,129.0 L 67.0,129.5 L 66.5,130.0 L 66.5,131.0 L 66.0,131.5 L 65.5,132.0 L 65.5,133.0 L 65.5,134.0 L 65.0,134.5 L 64.5,135.0 L 64.5,136.0 L 64.0,136.5 L 63.5,137.0 L 63.5,138.0 L 63.0,138.5 L 62.5,139.0 L 62.5,140.0 L 62.5,141.0 L 62.0,141.5 L 61.5,142.0 L 61.5,143.0 L 61.0,143.5 L 60.5,144.0 L 60.5,145.0 L 60.5,146.0 L 60.0,146.5 L 59.5,147.0 L 59.5,148.0 L 59.0,148.5 L 58.5,149.0 L 58.5,150.0 L 58.5,151.0 L 58.0,151.5 L 57.5,152.0 L 57.5,153.0 L 57.0,153.5 L 56.5,154.0 L 56.5,155.0 L 56.0,155.5 L 55.5,156.0 L 55.5,157.0 L 55.5,158.0 L 55.0,158.5 L 54.5,159.0 L 54.5,160.0 L 54.0,160.5 L 53.5,161.0 L 53.5,162.0 L 53.5,163.0 L 53.0,163.5 L 52.5,164.0 L 52.5,165.0 L 52.0,165.5 L 51.5,166.0 L 51.5,167.0 L 51.5,168.0 L 51.0,168.5 L 50.0,168.5 L 49.0,168.5 L 48.0,168.5 L 47.0,168.5 L 46.0,168.5 L 45.0,168.5 L 44.0,168.5 L 43.0,168.5 L 42.0,168.5 L 41.0,168.5 L 40.0,168.5 L 39.0,168.5 L 38.0,168.5 L 37.0,168.5 L 36.0,168.5 L 35.0,168.5 L 34.0,168.5 L 33.0,168.5 L 32.0,168.5 L 31.0,168.5 L 30.0,168.5 L 29.0,168.5 L 28.0,168.5 L 27.0,168.5 L 26.0,168.5 L 25.0,168.5 L 24.0,168.5 L 23.0,168.5 L 22.0,168.5 L 21.0,168.5 L 20.0,168.5 L 19.5,168.0 L 19.5,167.0 L 20.0,166.5 L 20.5,166.0 L 20.5,165.0 L 21.0,164.5 L 21.5,164.0 L 21.5,163.0 L 22.0,162.5 L 22.5,162.0 L 22.5,161.0 L 23.0,160.5 L 23.5,160.0 L 23.5,159.0 L 23.5,158.0 L 24.0,157.5 L 24.5,157.0 L 24.5,156.0 L 25.0,155.5 L 25.5,155.0 L 25.5,154.0 L 26.0,153.5 L 26.5,153.0 L 26.5,152.0 L 26.5,151.0 L 27.0,150.5 L 27.5,150.0 L 27.5,149.0 L 28.0,148.5 L 28.5,148.0 L 28.5,147.0 L 29.0,146.5 L 29.5,146.0 L 29.5,145.0 L 30.0,144.5 L 30.5,144.0 L 30.5,143.0 L 30.5,142.0 L 31.0,141.5 L 31.5,141.0 L 31.5,140.0 L 32.0,139.5 L 32.5,139.0 L 32.5,138.0 L 33.0,137.5 L 33.5,137.0 L 33.5,136.0 L 34.0,135.5 L 34.5,135.0 L 34.5,134.0 L 34.5,133.0 L 35.0,132.5 L 35.5,132.0 L 35.5,131.0 L 36.0,130.5 L 36.5,130.0 L 36.5,129.0 L 37.0,128.5 L 37.5,128.0 L 37.5,127.0 L 38.0,126.5 L 38.5,126.0 L 38.5,125.0 L 39.0,124.5 L 39.5,124.0 L 39.5,123.0 L 40.0,122.5 L 40.5,122.0 L 40.5,121.0 L 41.0,120.5 L 41.5,120.0 L 41.5,119.0 L 42.0,118.5 L 42.5,118.0 L 42.5,117.0 L 43.0,116.5 L 43.5,116.0 L 43.5,115.0 L 43.5,114.0 L 44.0,113.5 L 44.5,113.0 L 44.5,112.0 L 45.0,111.5 L 45.5,111.0 L 45.5,110.0 L 46.0,109.5 L 46.5,109.0 L 46.5,108.0 L 47.0,107.5 L 47.5,107.0 L 47.5,106.0 L 47.5,105.0 L 48.0,104.5 L 48.5,104.0 L 48.5,103.0 L 49.0,102.5 L 49.5,102.0 L 49.5,101.0 L 50.0,100.5 L 50.5,100.0 L 50.5,99.0 L 51.0,98.5 L 51.5,98.0 L 51.5,97.0 L 51.5,96.0 L 52.0,95.5 L 52.5,95.0 L 52.5,94.0 L 53.0,93.5 L 53.5,93.0 L 53.5,92.0 L 54.0,91.5 L 54.5,91.0 L 54.5,90.0 L 55.0,89.5 L 55.5,89.0 L 55.5,88.0 L 56.0,87.5 L 56.5,87.0 L 56.5,86.0 L 56.5,85.0 L 57.0,84.5 L 57.5,84.0 L 57.5,83.0 L 58.0,82.5 L 58.5,82.0 L 58.5,81.0 L 59.0,80.5 L 59.5,80.0 L 59.5,79.0 L 60.0,78.5 L 60.5,78.0 L 60.5,77.0 L 61.0,76.5 L 61.5,76.0 L 61.5,75.0 L 61.5,74.0 L 62.0,73.5 L 62.5,73.0 L 62.5,72.0 L 63.0,71.5 L 63.5,71.0 L 63.5,70.0 L 64.0,69.5 L 64.5,69.0 L 64.5,68.0 L 65.0,67.5 L 65.5,67.0 L 65.5,66.0 L 65.5,65.0 L 66.0,64.5 L 66.5,64.0 L 66.5,63.0 L 67.0,62.5 L 67.5,62.0 L 67.5,61.0 L 68.0,60.5 L 68.5,60.0 L 68.5,59.0 L 69.0,58.5 L 69.5,58.0 L 69.5,57.0 L 70.0,56.5 L 70.5,56.0 L 70.5,55.0 L 71.0,54.5 L 71.5,54.0 L 71.5,53.0 L 72.0,52.5 L 72.5,52.0 L 72.5,51.0 L 72.5,50.0 L 73.0,49.5 L 73.5,49.0 L 73.5,48.0 L 74.0,47.5 L 74.5,47.0 L 74.5,46.0 L 75.0,45.5 L 75.5,45.0 L 75.5,44.0 L 76.0,43.5 L 76.5,43.0 L 76.5,42.0 L 77.0,41.5 L 77.5,41.0 L 77.5,40.0 L 77.5,39.0 L 78.0,38.5 L 78.5,38.0 L 78.5,37.0 L 79.0,36.5 L 79.5,36.0 L 79.5,35.0 L 80.0,34.5 L 80.5,34.0 L 80.5,33.0 L 81.0,32.5 L 81.5,32.0 L 81.5,31.0 L 82.0,30.5 L 82.5,30.0 L 82.5,29.0 L 82.5,28.0 L 83.0,27.5 L 84.0,27.5 L 85.0,27.5 L 86.0,27.5 L 87.0,27.5 L 88.0,27.5 L 89.0,27.5 L 90.0,27.5 L 91.0,27.5 L 92.0,27.5 L 93.0,27.5 L 94.0,27.5 L 95.0,27.5 L 96.0,27.5 L 97.0,27.5 L 98.0,27.5 L 99.0,27.5 L 100.0,27.5 L 101.0,27.5 L 102.0,27.5 L 103.0,27.5 L 104.0,27.5 L 105.0,27.5 L 106.0,27.5 L 107.0,27.5 L 108.0,27.5 L 109.0,27.5 L 110.0,27.5 L 111.0,27.5 L 112.0,27.5 L 113.0,27.5 L 114.0,27.5 L 114.5,28.0 L 114.5,29.0 L 115.0,29.5 L 115.5,30.0 L 115.5,31.0 L 116.0,31.5 L 116.5,32.0 L 116.5,33.0 L 117.0,33.5 L 117.5,34.0 L 117.5,35.0 L 118.0,35.5 L 118.5,36.0 L 118.5,37.0 L 118.5,38.0 L 119.0,38.5 L 119.5,39.0 L 119.5,40.0 L 120.0,40.5 L 120.5,41.0 L 120.5,42.0 L 121.0,42.5 L 121.5,43.0 L 121.5,44.0 L 122.0,44.5 L 122.5,45.0 L 122.5,46.0 L 123.0,46.5 L 123.5,47.0 L 123.5,48.0 L 123.5,49.0 L 124.0,49.5 L 124.5,50.0 L 124.5,51.0 L 125.0,51.5 L 125.5,52.0 L 125.5,53.0 L 126.0,53.5 L 126.5,54.0 L 126.5,55.0 L 126.5,56.0 L 127.0,56.5 L 127.5,57.0 L 127.5,58.0 L 128.0,58.5 L 128.5,59.0 L 128.5,60.0 L 129.0,60.5 L 129.5,61.0 L 129.5,62.0 L 130.0,62.5 L 130.5,63.0 L 130.5,64.0 L 130.5,65.0 L 131.0,65.5 L 131.5,66.0 L 131.5,67.0 L 132.0,67.5 L 132.5,68.0 L 132.5,69.0 L 133.0,69.5 L 133.5,70.0 L 133.5,71.0 L 134.0,71.5 L 134.5,72.0 L 134.5,73.0 L 135.0,73.5 L 135.5,74.0 L 135.5,75.0 L 135.5,76.0 L 136.0,76.5 L 136.5,77.0 L 136.5,78.0 L 137.0,78.5 L 137.5,79.0 L 137.5,80.0 L 138.0,80.5 L 138.5,81.0 L 138.5,82.0 L 139.0,82.5 L 139.5,83.0 L 139.5,84.0 L 139.5,85.0 L 140.0,85.5 L 140.5,86.0 L 140.5,87.0 L 141.0,87.5 L 141.5,88.0 L 141.5,89.0 L 142.0,89.5 L 142.5,90.0 L 142.5,91.0 L 143.0,91.5 L 143.5,92.0 L 143.5,93.0 L 143.5,94.0 L 144.0,94.5 L 144.5,95.0 L 144.5,96.0 L 145.0,96.5 L 145.5,97.0 L 145.5,98.0 L 146.0,98.5 L 146.5,99.0 L 146.5,100.0 L 146.5,101.0 L 147.0,101.5 L 147.5,102.0 L 147.5,103.0 L 148.0,103.5 L 148.5,104.0 L 148.5,105.0 L 149.0,105.5 L 149.5,106.0 L 149.5,107.0 L 150.0,107.5 L 150.5,108.0 L 150.5,109.0 L 151.0,109.5 L 151.5,110.0 L 151.5,111.0 L 152.0,111.5 L 152.5,112.0 L 152.5,113.0 L 152.5,114.0 L 153.0,114.5 L 153.5,115.0 L 153.5,116.0 L 154.0,116.5 L 154.5,117.0 L 154.5,118.0 L 155.0,118.5 L 155.5,119.0 L 155.5,120.0 L 156.0,120.5 L 156.5,121.0 L 156.5,122.0 L 156.5,123.0 L 157.0,123.5 L 157.5,124.0 L 157.5,125.0 L 158.0,125.5 L 158.5,126.0 L 158.5,127.0 L 159.0,127.5 L 159.5,128.0 L 159.5,129.0 L 160.0,129.5 L 160.5,130.0 L 160.5,131.0 L 160.5,132.0 L 161.0,132.5 L 161.5,133.0 L 161.5,134.0 L 162.0,134.5 L 162.5,135.0 L 162.5,136.0 L 163.0,136.5 L 163.5,137.0 L 163.5,138.0 L 164.0,138.5 L 164.5,139.0 L 164.5,140.0 L 164.5,141.0 L 165.0,141.5 L 165.5,142.0 L 165.5,143.0 L 166.0,143.5 L 166.5,144.0 L 166.5,145.0 L 167.0,145.5 L 167.5,146.0 L 167.5,147.0 L 168.0,147.5 L 168.5,148.0 L 168.5,149.0 L 169.0,149.5 L 169.5,150.0 L 169.5,151.0 L 169.5,152.0 L 170.0,152.5 L 170.5,153.0 L 170.5,154.0 L 171.0,154.5 L 171.5,155.0 L 171.5,156.0 L 172.0,156.5 L 172.5,157.0 L 172.5,158.0 L 173.0,158.5 L 173.5,159.0 L 173.5,160.0 L 174.0,160.5 L 174.5,161.0 L 174.5,162.0 L 174.5,163.0 L 175.0,163.5 L 175.5,164.0 L 175.5,165.0 L 176.0,165.5 L 176.5,166.0 L 176.5,167.0 L 177.0,167.5 L 177.5,168.0 L 177.0,168.5 Z" fill="black"/>
	<path d="M 277.0,168.5 L 276.0,168.5 L 275.0,168.5 L 274.0,168.5 L 273.0,168.5 L 272.0,168.5 L 271.0,168.5 L 270.0,168.5 L 269.0,168.5 L 268.0,168.5 L 267.0,168.5 L 266.0,168.5 L 265.0,168.5 L 264.0,168.5 L 263.0,168.5 L 262.0,168.5 L 261.0,168.5 L 260.0,168.5 L 259.0,168.5 L 258.0,168.5 L 257.0,168.5 L 256.0,168.5 L 255.0,168.5 L 254.0,168.5 L 253.0,168.5 L 252.0,168.5 L 251.0,168.5 L 250.0,168.5 L 249.0,168.5 L 248.0,168.5 L 247.0,168.5 L 246.0,168.5 L 245.0,168.5 L 244.5,168.0 L 244.5,167.0 L 244.5,166.0 L 244.0,165.5 L 243.5,165.0 L 243.5,164.0 L 243.0,163.5 L 242.5,163.0 L 242.5,162.0 L 242.5,161.0 L 242.0,160.5 L 241.5,160.0 L 241.5,159.0 L 241.0,158.5 L 240.5,158.0 L 240.5,157.0 L 240.0,156.5 L 239.5,156.0 L 239.5,155.0 L 239.5,154.0 L 239.0,153.5 L 238.5,153.0 L 238.5,152.0 L 238.0,151.5 L 237.5,151.0 L 237.5,150.0 L 237.5,149.0 L 237.0,148.5 L 236.5,148.0 L 236.5,147.0 L 236.0,146.5 L 235.5,146.0 L 235.5,145.0 L 235.0,144.5 L 234.5,144.0 L 234.5,143.0 L 234.5,142.0 L 234.0,141.5 L 233.5,141.0 L 233.5,140.0 L 233.0,139.5 L 232.5,139.0 L 232.5,138.0 L 232.5,137.0 L 232.0,136.5 L 231.5,136.0 L 231.5,135.0 L 231.0,134.5 L 230.5,134.0 L 230.5,133.0 L 230.0,132.5 L 229.5,132.0 L 229.5,131.0 L 229.5,130.0 L 229.0,129.5 L 228.5,129.0 L 228.5,128.0 L 228.0,127.5 L 227.5,127.0 L 227.5,126.0 L 227.5,125.0 L 227.0,124.5 L 226.5,124.0 L 226.5,123.0 L 226.0,122.5 L 225.5,122.0 L 225.5,121.0 L 225.0,120.5 L 224.5,120.0 L 224.5,119.0 L 224.5,118.0 L 224.0,117.5 L 223.5,117.0 L 223.5,116.0 L 223.0,115.5 L 222.5,115.0 L 222.5,114.0 L 222.5,113.0 L 222.0,112.5 L 221.5,112.0 L 221.5,111.0 L 221.0,110.5 L 220.5,110.0 L 220.5,109.0 L 220.5,108.0 L 220.0,107.5 L 219.5,107.0 L 219.5,106.0 L 219.0,105.5 L 218.5,105.0 L 218.5,104.0 L 218.0,103.5 L 217.5,103.0 L 217.5,102.0 L 217.5,101.0 L 217.0,100.5 L 216.5,100.0 L 216.5,99.0 L 216.0,98.5 L 215.5,98.0 L 215.5,97.0 L 215.0,96.5 L 214.5,96.0 L 214.5,95.0 L 214.5,94.0 L 214.0,93.5 L 213.5,93.0 L 213.5,92.0 L 213.0,91.5 L 212.5,91.0 L 212.5,90.0 L 212.0,89.5 L 211.5,89.0 L 211.5,88.0 L 211.0,87.5 L 210.5,87.0 L 210.5,86.0 L 210.5,85.0 L 210.0,84.5 L 209.5,84.0 L 209.5,83.0 L 209.0,82.5 L 208.5,82.0 L 208.5,81.0 L 208.5,80.0 L 208.0,79.5 L 207.5,79.0 L 207.5,78.0 L 207.0,77.5 L 206.5,77.0 L 206.5,76.0 L 206.5,75.0 L 206.0,74.5 L 205.5,74.0 L 205.5,73.0 L 205.0,72.5 L 204.5,72.0 L 204.5,71.0 L 204.0,70.5 L 203.5,70.0 L 203.5,69.0 L 203.5,68.0 L 203.0,67.5 L 202.5,67.0 L 202.5,66.0 L 202.0,65.5 L 201.5,65.0 L 201.5,64.0 L 201.5,63.0 L 201.0,62.5 L 200.5,62.0 L 200.5,61.0 L 200.0,60.5 L 199.5,60.0 L 199.5,59.0 L 199.5,58.0 L 199.0,57.5 L 198.5,57.0 L 198.5,56.0 L 198.0,55.5 L 197.5,55.0 L 197.5,54.0 L 197.0,53.5 L 196.5,53.0 L 196.5,52.0 L 196.5,51.0 L 196.0,50.5 L 195.5,50.0 L 195.5,49.0 L 195.0,48.5 L 194.5,48.0 L 194.5,47.0 L 194.5,46.0 L 194.0,45.5 L 193.5,45.0 L 193.5,44.0 L 193.0,43.5 L 192.5,43.0 L 192.5,42.0 L 192.5,41.0 L 192.0,40.5 L 191.5,40.0 L 191.5,39.0 L 191.0,38.5 L 190.5,38.0 L 190.5,37.0 L 190.5,36.0 L 190.0,35.5 L 189.5,35.0 L 189.5,34.0 L 189.0,33.5 L 188.5,33.0 L 188.5,32.0 L 188.5,31.0 L 188.0,30.5 L 187.5,30.0 L 187.5,29.0 L 187.0,28.5 L 186.5,28.0 L 187.0,27.5 L 188.0,27.5 L 189.0,27.5 L 190.0,27.5 L 191.0,27.5 L 192.0,27.5 L 193.0,27.5 L 194.0,27.5 L 195.0,27.5 L 196.0,27.5 L 197.0,27.5 L 198.0,27.5 L 199.0,27.5 L 200.0,27.5 L 201.0,27.5 L 202.0,27.5 L 203.0,27.5 L 204.0,27.5 L 205.0,27.5 L 206.0,27.5 L 207.0,27.5 L 208.0,27.5 L 209.0,27.5 L 210.0,27.5 L 211.0,27.5 L 212.0,27.5 L 213.0,27.5 L 214.0,27.5 L 215.0,27.5 L 216.0,27.5 L 217.0,27.5 L 218.0,27.5 L 219.0,27.5 L 219.5,28.0 L 220.0,28.5 L 220.5,29.0 L 220.5,30.0 L 220.5,31.0 L 221.0,31.5 L 221.5,32.0 L 221.5,33.0 L 222.0,33.5 L 222.5,34.0 L 222.5,35.0 L 222.5,36.0 L 223.0,36.5 L 223.5,37.0 L 223.5,38.0 L 223.5,39.0 L 224.0,39.5 L 224.5,40.0 L 224.5,41.0 L 225.0,41.5 L 225.5,42.0 L 225.5,43.0 L 225.5,44.0 L 226.0,44.5 L 226.5,45.0 L 226.5,46.0 L 227.0,46.5 L 227.5,47.0 L 227.5,48.0 L 227.5,49.0 L 228.0,49.5 L 228.5,50.0 L 228.5,51.0 L 228.5,52.0 L 229.0,52.5 L 229.5,53.0 L 229.5,54.0 L 230.0,54.5 L 230.5,55.0 L 230.5,56.0 L 230.5,57.0 L 231.0,57.5 L 231.5,58.0 L 231.5,59.0 L 232.0,59.5 L 232.5,60.0 L 232.5,61.0 L 233.0,61.5 L 233.5,62.0 L 233.5,63.0 L 233.5,64.0 L 234.0,64.5 L 234.5,65.0 L 234.5,66.0 L 235.0,66.5 L 235.5,67.0 L 235.5,68.0 L 235.5,69.0 L 236.0,69.5 L 236.5,70.0 L 236.5,71.0 L 236.5,72.0 L 237.0,72.5 L 237.5,73.0 L 237.5,74.0 L 238.0,74.5 L 238.5,75.0 L 238.5,76.0 L 238.5,77.0 L 239.0,77.5 L 239.5,78.0 L 239.5,79.0 L 240.0,79.5 L 240.5,80.0 L 240.5,81.0 L 240.5,82.0 L 241.0,82.5 L 241.5,83.0 L 241.5,84.0 L 242.0,84.5 L 242.5,85.0 L 242.5,86.0 L 242.5,87.0 L 243.0,87.5 L 243.5,88.0 L 243.5,89.0 L 244.0,89.5 L 244.5,90.0 L 244.5,91.0 L 244.5,92.0 L 245.0,92.5 L 245.5,93.0 L 245.5,94.0 L 246.0,94.5 L 246.5,95.0 L 246.5,96.0 L 246.5,97.0 L 247.0,97.5 L 247.5,98.0 L 247.5,99.0 L 248.0,99.5 L 248.5,100.0 L 248.5,101.0 L 248.5,102.0 L 249.0,102.5 L 249.5,103.0 L 249.5,104.0 L 250.0,104.5 L 250.5,105.0 L 250.5,106.0 L 250.5,107.0 L 251.0,107.5 L 251.5,108.0 L 251.5,109.0 L 251.5,110.0 L 252.0,110.5 L 252.5,111.0 L 252.5,112.0 L 253.0,112.5 L 253.5,113.0 L 253.5,114.0 L 253.5,115.0 L 254.0,115.5 L 254.5,116.0 L 254.5,117.0 L 254.5,118.0 L 255.0,118.5 L 255.5,119.0 L 255.5,120.0 L 256.0,120.5 L 256.5,121.0 L 256.5,122.0 L 256.5,123.0 L 257.0,123.5 L 257.5,124.0 L 257.5,125.0 L 258.0,125.5 L 258.5,126.0 L 258.5,127.0 L 258.5,128.0 L 259.0,128.5 L 259.5,129.0 L 259.5,130.0 L 259.5,131.0 L 260.0,131.5 L 260.5,132.0 L 260.5,133.0 L 260.5,134.0 L 261.0,134.5 L 262.0,134.5 L 262.5,134.0 L 262.5,133.0 L 263.0,132.5 L 263.5,132.0 L 263.5,131.0 L 263.5,130.0 L 264.0,129.5 L 264.5,129.0 L 264.5,128.0 L 264.5,127.0 L 265.0,126.5 L 265.5,126.0 L 265.5,125.0 L 266.0,124.5 L 266.5,124.0 L 266.5,123.0 L 266.5,122.0 L 267.0,121.5 L 267.5,121.0 L 267.5,120.0 L 268.0,119.5 L 268.5,119.0 L 268.5,118.0 L 268.5,117.0 L 269.0,116.5 L 269.5,116.0 L 269.5,115.0 L 269.5,114.0 L 270.0,113.5 L 270.5,113.0 L 270.5,112.0 L 271.0,111.5 L 271.5,111.0 L 271.5,110.0 L 271.5,109.0 L 272.0,108.5 L 272.5,108.0 L 272.5,107.0 L 272.5,106.0 L 273.0,105.5 L 273.5,105.0 L 273.5,104.0 L 274.0,103.5 L 274.5,103.0 L 274.5,102.0 L 274.5,101.0 L 275.0,100.5 L 275.5,100.0 L 275.5,99.0 L 276.0,98.5 L 276.5,98.0 L 276.5,97.0 L 276.5,96.0 L 277.0,95.5 L 277.5,95.0 L 277.5,94.0 L 278.0,93.5 L 278.5,93.0 L 278.5,92.0 L 278.5,91.0 L 279.0,90.5 L 279.5,90.0 L 279.5,89.0 L 280.0,88.5 L 280.5,88.0 L 280.5,87.0 L 280.5,86.0 L 281.0,85.5 L 281.5,85.0 L 281.5,84.0 L 282.0,83.5 L 282.5,83.0 L 282.5,82.0 L 282.5,81.0 L 283.0,80.5 L 283.5,80.0 L 283.5,79.0 L 284.0,78.5 L 284.5,78.0 L 284.5,77.0 L 284.5,76.0 L 285.0,75.5 L 285.5,75.0 L 285.5,74.0 L 286.0,73.5 L 286.5,73.0 L 286.5,72.0 L 286.5,71.0 L 287.0,70.5 L 287.5,70.0 L 287.5,69.0 L 288.0,68.5 L 288.5,68.0 L 288.5,67.0 L 288.5,66.0 L 289.0,65.5 L 289.5,65.0 L 289.5,64.0 L 290.0,63.5 L 290.5,63.0 L 290.5,62.0 L 290.5,61.0 L 291.0,60.5 L 291.5,60.0 L 291.5,59.0 L 292.0,58.5 L 292.5,58.0 L 292.5,57.0 L 292.5,56.0 L 293.0,55.5 L 293.5,55.0 L 293.5,54.0 L 294.0,53.5 L 294.5,53.0 L 294.5,52.0 L 295.0,51.5 L 295.5,51.0 L 295.5,50.0 L 295.5,49.0 L 296.0,48.5 L 296.5,48.0 L 296.5,47.0 L 297.0,46.5 L 297.5,46.0 L 297.5,45.0 L 297.5,44.0 L 298.0,43.5 L 298.5,43.0 L 298.5,42.0 L 299.0,41.5 L 299.5,41.0 L 299.5,40.0 L 299.5,39.0 L 300.0,38.5 L 300.5,38.0 L 300.5,37.0 L 301.0,36.5 L 301.5,36.0 L 301.5,35.0 L 301.5,34.0 L 302.0,33.5 L 302.5,33.0 L 302.5,32.0 L 302.5,31.0 L 303.0,30.5 L 303.5,30.0 L 303.5,29.0 L 303.5,28.0 L 304.0,27.5 L 305.0,27.5 L 306.0,27.5 L 307.0,27.5 L 308.0,27.5 L 309.0,27.5 L 310.0,27.5 L 311.0,27.5 L 312.0,27.5 L 313.0,27.5 L 314.0,27.5 L 315.0,27.5 L 316.0,27.5 L 317.0,27.5 L 318.0,27.5 L 319.0,27.5 L 320.0,27.5 L 321.0,27.5 L 322.0,27.5 L 323.0,27.5 L 324.0,27.5 L 325.0,27.5 L 326.0,27.5 L 327.0,27.5 L 328.0,27.5 L 329.0,27.5 L 330.0,27.5 L 331.0,27.5 L 332.0,27.5 L 333.0,27.5 L 334.0,27.5 L 335.0,27.5 L 335.5,28.0 L 335.5,29.0 L 335.5,30.0 L 335.0,30.5 L 334.5,31.0 L 334.5,32.0 L 334.0,32.5 L 333.5,33.0 L 333.5,34.0 L 333.5,35.0 L 333.0,35.5 L 332.5,36.0 L 332.5,37.0 L 332.0,37.5 L 331.5,38.0 L 331.5,39.0 L 331.5,40.0 L 331.0,40.5 L 330.5,41.0 L 330.5,42.0 L 330.0,42.5 L 329.5,43.0 L 329.5,44.0 L 329.0,44.5 L 328.5,45.0 L 328.5,46.0 L 328.0,46.5 L 327.5,47.0 L 327.5,48.0 L 327.5,49.0 L 327.0,49.5 L 326.5,50.0 L 326.5,51.0 L 326.0,51.5 L 325.5,52.0 L 325.5,53.0 L 325.0,53.5 L 324.5,54.0 L 324.5,55.0 L 324.5,56.0 L 324.0,56.5 L 323.5,57.0 L 323.5,58.0 L 323.0,58.5 L 322.5,59.0 L 322.5,60.0 L 322.0,60.5 L 321.5,61.0 L 321.5,62.0 L 321.0,62.5 L 320.5,63.0 L 320.5,64.0 L 320.5,65.0 L 320.0,65.5 L 319.5,66.0 L 319.5,67.0 L 319.0,67.5 L 318.5,68.0 L 318.5,69.0 L 318.5,70.0 L 318.0,70.5 L 317.5,71.0 L 317.5,72.0 L 317.0,72.5 L 316.5,73.0 L 316.5,74.0 L 316.0,74.5 L 315.5,75.0 L 315.5,76.0 L 315.5,77.0 L 315.0,77.5 L 314.5,78.0 L 314.5,79.0 L 314.0,79.5 L 313.5,80.0 L 313.5,81.0 L 313.5,82.0 L 313.0,82.5 L 312.5,83.0 L 312.5,84.0 L 312.0,84.5 L 311.5,85.0 L 311.5,86.0 L 311.0,86.5 L 310.5,87.0 L 310.5,88.0 L 310.5,89.0 L 310.0,89.5 L 309.5,90.0 L 309.5,91.0 L 309.0,91.5 L 308.5,92.0 L 308.5,93.0 L 308.0,93.5 L 307.5,94.0 L 307.5,95.0 L 307.0,95.5 L 306.5,96.0 L 306.5,97.0 L 306.5,98.0 L 306.0,98.5 L 305.5,99.0 L 305.5,100.0 L 305.0,100.5 L 304.5,101.0 L 304.5,102.0 L 304.0,102.5 L 303.5,103.0 L 303.5,104.0 L 303.5,105.0 L 303.0,105.5 L 302.5,106.0 L 302.5,107.0 L 302.0,107.5 L 301.5,108.0 L 301.5,109.0 L 301.5,110.0 L 301.0,110.5 L 300.5,111.0 L 300.5,112.0 L 300.0,112.5 L 299.5,113.0 L 299.5,114.0 L 299.5,115.0 L 299.0,115.5 L 298.5,116.0 L 298.5,117.0 L 298.0,117.5 L 297.5,118.0 L 297.5,119.0 L 297.0,119.5 L 296.5,120.0 L 296.5,121.0 L 296.5,122.0 L 296.0,122.5 L 295.5,123.0 L 295.5,124.0 L 295.0,124.5 L 294.5,125.0 L 294.5,126.0 L 294.5,127.0 L 294.0,127.5 L 293.5,128.0 L 293.5,129.0 L 293.0,129.5 L 292.5,130.0 L 292.5,131.0 L 292.5,132.0 L 292.0,132.5 L 291.5,133.0 L 291.5,134.0 L 291.0,134.5 L 290.5,135.0 L 290.5,136.0 L 290.0,136.5 L 289.5,137.0 L 289.5,138.0 L 289.5,139.0 L 289.0,139.5 L 288.5,140.0 L 288.5,141.0 L 288.0,141.5 L 287.5,142.0 L 287.5,143.0 L 287.5,144.0 L 287.0,144.5 L 286.5,145.0 L 286.5,146.0 L 286.0,146.5 L 285.5,147.0 L 285.5,148.0 L 285.5,149.0 L 285.0,149.5 L 284.5,150.0 L 284.5,151.0 L 284.0,151.5 L 283.5,152.0 L 283.5,153.0 L 283.5,154.0 L 283.0,154.5 L 282.5,155.0 L 282.5,156.0 L 282.0,156.5 L 281.5,157.0 L 281.5,158.0 L 281.5,159.0 L 281.0,159.5 L 280.5,160.0 L 280.5,161.0 L 280.0,161.5 L 279.5,162.0 L 279.5,163.0 L 279.0,163.5 L 278.5,164.0 L 278.5,165.0 L 278.5,166.0 L 278.0,166.5 L 277.5,167.0 L 277.5,168.0 L 277.0,168.5 Z" fill="black"/>
	<path d="M 410.0,168.5 L 409.0,168.5 L 408.0,168.5 L 407.0,168.5 L 406.0,168.5 L 405.0,168.5 L 404.0,168.5 L 403.0,168.5 L 402.0,168.5 L 401.0,168.5 L 400.0,168.5 L 399.0,168.5 L 398.0,168.5 L 397.0,168.5 L 396.0,168.5 L 395.0,168.5 L 394.0,168.5 L 393.0,168.5 L 392.0,168.5 L 391.0,168.5 L 390.0,168.5 L 389.0,168.5 L 388.0,168.5 L 387.0,168.5 L 386.0,168.5 L 385.0,168.5 L 384.0,168.5 L 383.0,168.5 L 382.5,168.0 L 382.5,167.0 L 382.5,166.0 L 382.5,165.0 L 382.5,164.0 L 382.5,163.0 L 382.5,162.0 L 382.5,161.0 L 382.5,160.0 L 382.5,159.0 L 382.5,158.0 L 382.5,157.0 L 382.5,156.0 L 382.5,155.0 L 382.5,154.0 L 382.5,153.0 L 382.5,152.0 L 382.5,151.0 L 382.5,150.0 L 382.5,149.0 L 382.5,148.0 L 382.5,147.0 L 382.5,146.0 L 382.5,145.0 L 382.5,144.0 L 382.5,143.0 L 382.5,142.0 L 382.5,141.0 L 382.5,140.0 L 382.5,139.0 L 382.5,138.0 L 382.5,137.0 L 382.5,136.0 L 382.5,135.0 L 382.5,134.0 L 382.5,133.0 L 382.5,132.0 L 382.5,131.0 L 382.5,130.0 L 382.5,129.0 L 382.5,128.0 L 382.5,127.0 L 382.5,126.0 L 382.5,125.0 L 382.5,124.0 L 382.5,123.0 L 382.5,122.0 L 382.5,121.0 L 382.5,120.0 L 382.5,119.0 L 382.5,118.0 L 382.5,117.0 L 382.5,116.0 L 382.5,115.0 L 382.5,114.0 L 382.5,113.0 L 382.5,112.0 L 382.5,111.0 L 382.5,110.0 L 382.5,109.0 L 382.5,108.0 L 382.5,107.0 L 382.5,106.0 L 382.5,105.0 L 382.5,104.0 L 382.5,103.0 L 382.5,102.0 L 382.5,101.0 L 382.5,100.0 L 382.5,99.0 L 382.5,98.0 L 382.5,97.0 L 382.5,96.0 L 382.5,95.0 L 382.5,94.0 L 382.5,93.0 L 382.5,92.0 L 382.5,91.0 L 382.5,90.0 L 382.5,89.0 L 382.5,88.0 L 382.5,87.0 L 382.5,86.0 L 382.5,85.0 L 382.5,84.0 L 382.5,83.0 L 382.5,82.0 L 382.5,81.0 L 382.5,80.0 L 382.5,79.0 L 382.5,78.0 L 382.5,77.0 L 382.5,76.0 L 382.5,75.0 L 382.5,74.0 L 382.5,73.0 L 382.5,72.0 L 382.5,71.0 L 382.5,70.0 L 382.5,69.0 L 382.5,68.0 L 382.5,67.0 L 382.5,66.0 L 382.5,65.0 L 382.5,64.0 L 382.5,63.0 L 382.5,62.0 L 382.5,61.0 L 382.5,60.0 L 382.5,59.0 L 382.5,58.0 L 382.5,57.0 L 382.5,56.0 L 382.5,55.0 L 382.5,54.0 L 382.5,53.0 L 382.5,52.0 L 382.5,51.0 L 382.5,50.0 L 382.5,49.0 L 382.5,48.0 L 382.5,47.0 L 382.5,46.0 L 382.5,45.0 L 382.5,44.0 L 382.5,43.0 L 382.5,42.0 L 382.5,41.0 L 382.5,40.0 L 382.5,39.0 L 382.5,38.0 L 382.5,37.0 L 382.5,36.0 L 382.5,35.0 L 382.5,34.0 L 382.5,33.0 L 382.5,32.0 L 382.5,31.0 L 382.5,30.0 L 382.5,29.0 L 382.5,28.0 L 383.0,27.5 L 384.0,27.5 L 385.0,27.5 L 386.0,27.5 L 387.0,27.5 L 388.0,27.5 L 389.0,27.5 L 390.0,27.5 L 391.0,27.5 L 392.0,27.5 L 393.0,27.5 L 394.0,27.5 L 395.0,27.5 L 396.0,27.5 L 397.0,27.5 L 398.0,27.5 L 399.0,27.5 L 400.0,27.5 L 401.0,27.5 L 402.0,27.5 L 403.0,27.5 L 404.0,27.5 L 405.0,27.5 L 406.0,27.5 L 407.0,27.5 L 408.0,27.5 L 409.0,27.5 L 410.0,27.5 L 410.5,28.0 L 410.5,29.0 L 410.5,30.0 L 410.5,31.0 L 410.5,32.0 L 410.5,33.0 L 410.5,34.0 L 410.5,35.0 L 410.5,36.0 L 410.5,37.0 L 410.5,38.0 L 410.5,39.0 L 410.5,40.0 L 410.5,41.0 L 410.5,42.0 L 410.5,43.0 L 410.5,44.0 L 410.5,45.0 L 410.5,46.0 L 410.5,47.0 L 410.5,48.0 L 410.5,49.0 L 410.5,50.0 L 410.5,51.0 L 410.5,52.0 L 410.5,53.0 L 410.5,54.0 L 410.5,55.0 L 410.5,56.0 L 410.5,57.0 L 410.5,58.0 L 410.5,59.0 L 410.5,60.0 L 410.5,61.0 L 410.5,62.0 L 410.5,63.0 L 410.5,64.0 L 410.5,65.0 L 410.5,66.0 L 410.5,67.0 L 410.5,68.0 L 410.5,69.0 L 410.5,70.0 L 410.5,71.0 L 410.5,72.0 L 410.5,73.0 L 410.5,74.0 L 410.5,75.0 L 410.5,76.0 L 410.5,77.0 L 410.5,78.0 L 410.5,79.0 L 410.5,80.0 L 410.5,81.0 L 410.5,82.0 L 410.5,83.0 L 410.5,84.0 L 410.5,85.0 L 410.5,86.0 L 410.5,87.0 L 410.5,88.0 L 410.5,89.0 L 410.5,90.0 L 410.5,91.0 L 410.5,92.0 L 410.5,93.0 L 410.5,94.0 L 410.5,95.0 L 410.5,96.0 L 410.5,97.0 L 410.5,98.0 L 410.5,99.0 L 410.5,100.0 L 410.5,101.0 L 410.5,102.0 L 410.5,103.0 L 410.5,104.0 L 410.5,105.0 L 410.5,106.0 L 410.5,107.0 L 410.5,108.0 L 410.5,109.0 L 410.5,110.0 L 410.5,111.0 L 410.5,112.0 L 410.5,113.0 L 410.5,114.0 L 410.5,115.0 L 410.5,116.0 L 410.5,117.0 L 410.5,118.0 L 410.5,119.0 L 410.5,120.0 L 410.5,121.0 L 410.5,122.0 L 410.5,123.0 L 410.5,124.0 L 410.5,125.0 L 410.5,126.0 L 410.5,127.0 L 410.5,128.0 L 410.5,129.0 L 410.5,130.0 L 410.5,131.0 L 410.5,132.0 L 410.5,133.0 L 410.5,134.0 L 410.5,135.0 L 410.5,136.0 L 410.5,137.0 L 410.5,138.0 L 410.5,139.0 L 410.5,140.0 L 410.5,141.0 L 410.5,142.0 L 410.5,143.0 L 410.5,144.0 L 410.5,145.0 L 410.5,146.0 L 410.5,147.0 L 410.5,148.0 L 410.5,149.0 L 410.5,150.0 L 410.5,151.0 L 410.5,152.0 L 410.5,153.0 L 410.5,154.0 L 410.5,155.0 L 410.5,156.0 L 410.5,157.0 L 410.5,158.0 L 410.5,159.0 L 410.5,160.0 L 410.5,161.0 L 410.5,162.0 L 410.5,163.0 L 410.5,164.0 L 410.5,165.0 L 410.5,166.0 L 410.5,167.0 L 410.5,168.0 L 410.0,168.5 Z" fill="black"/>
	<path d="M 616.0,168.5 L 615.0,168.5 L 614.0,168.5 L 613.0,168.5 L 612.0,168.5 L 611.0,168.5 L 610.0,168.5 L 609.0,168.5 L 608.0,168.5 L 607.0,168.5 L 606.0,168.5 L 605.0,168.5 L 604.0,168.5 L 603.0,168.5 L 602.0,168.5 L 601.0,168.5 L 600.0,168.5 L 599.0,168.5 L 598.0,168.5 L 597.0,168.5 L 596.0,168.5 L 595.0,168.5 L 594.0,168.5 L 593.0,168.5 L 592.0,168.5 L 591.0,168.5 L 590.0,168.5 L 589.0,168.5 L 588.0,168.5 L 587.0,168.5 L 586.0,168.5 L 585.0,168.5 L 584.0,168.5 L 583.5,168.0 L 583.5,167.0 L 583.0,166.5 L 582.5,166.0 L 582.5,165.0 L 582.0,164.5 L 581.5,164.0 L 581.5,163.0 L 581.5,162.0 L 581.0,161.5 L 580.5,161.0 L 580.5,160.0 L 580.0,159.5 L 579.5,159.0 L 579.5,158.0 L 579.0,157.5 L 578.5,157.0 L 578.5,156.0 L 578.5,155.0 L 578.0,154.5 L 577.5,154.0 L 577.5,153.0 L 577.0,152.5 L 576.5,152.0 L 576.5,151.0 L 576.0,150.5 L 575.5,150.0 L 575.5,149.0 L 575.5,148.0 L 575.0,147.5 L 574.5,147.0 L 574.5,146.0 L 574.5,145.0 L 574.0,144.5 L 573.5,144.0 L 573.5,143.0 L 573.0,142.5 L 572.5,142.0 L 572.5,141.0 L 572.5,140.0 L 572.0,139.5 L 571.0,139.5 L 570.0,139.5 L 569.0,139.5 L 568.0,139.5 L 567.0,139.5 L 566.0,139.5 L 565.0,139.5 L 564.0,139.5 L 563.0,139.5 L 562.0,139.5 L 561.0,139.5 L 560.0,139.5 L 559.0,139.5 L 558.0,139.5 L 557.0,139.5 L 556.0,139.5 L 555.0,139.5 L 554.0,139.5 L 553.0,139.5 L 552.0,139.5 L 551.0,139.5 L 550.0,139.5 L 549.0,139.5 L 548.0,139.5 L 547.0,139.5 L 546.0,139.5 L 545.0,139.5 L 544.0,139.5 L 543.0,139.5 L 542.0,139.5 L 541.0,139.5 L 540.0,139.5 L 539.0,139.5 L 538.0,139.5 L 537.0,139.5 L 536.0,139.5 L 535.0,139.5 L 534.0,139.5 L 533.0,139.5 L 532.0,139.5 L 531.0,139.5 L 530.0,139.5 L 529.0,139.5 L 528.0,139.5 L 527.0,139.5 L 526.0,139.5 L 525.0,139.5 L 524.0,139.5 L 523.0,139.5 L 522.0,139.5 L 521.0,139.5 L 520.0,139.5 L 519.0,139.5 L 518.0,139.5 L 517.0,139.5 L 516.5,139.0 L 516.5,138.0 L 517.0,137.5 L 517.5,137.0 L 517.5,136.0 L 517.5,135.0 L 518.0,134.5 L 518.5,134.0 L 518.5,133.0 L 518.5,132.0 L 519.0,131.5 L 519.5,131.0 L 519.5,130.0 L 520.0,129.5 L 520.5,129.0 L 520.5,128.0 L 520.5,127.0 L 521.0,126.5 L 521.5,126.0 L 521.5,125.0 L 521.5,124.0 L 522.0,123.5 L 522.5,123.0 L 522.5,122.0 L 523.0,121.5 L 523.5,121.0 L 523.5,120.0 L 523.5,119.0 L 524.0,118.5 L 524.5,118.0 L 524.5,117.0 L 524.5,116.0 L 525.0,115.5 L 525.5,115.0 L 526.0,114.5 L 527.0,114.5 L 528.0,114.5 L 529.0,114.5 L 530.0,114.5 L 531.0,114.5 L 532.0,114.5 L 533.0,114.5 L 534.0,114.5 L 535.0,114.5 L 536.0,114.5 L 537.0,114.5 L 538.0,114.5 L 539.0,114.5 L 540.0,114.5 L 541.0,114.5 L 542.0,114.5 L 543.0,114.5 L 544.0,114.5 L 545.0,114.5 L 546.0,114.5 L 547.0,114.5 L 548.0,114.5 L 549.0,114.5 L 550.0,114.5 L 551.0,114.5 L 552.0,114.5 L 553.0,114.5 L 554.0,114.5 L 555.0,114.5 L 556.0,114.5 L 557.0,114.5 L 558.0,114.5 L 559.0,114.5 L 560.0,114.5 L 561.0,114.5 L 561.5,114.0 L 561.0,113.5 L 560.5,113.0 L 560.5,112.0 L 560.0,111.5 L 559.5,111.0 L 559.5,110.0 L 559.5,109.0 L 559.0,108.5 L 558.5,108.0 L 558.5,107.0 L 558.0,106.5 L 557.5,106.0 L 557.5,105.0 L 557.0,104.5 L 556.5,104.0 L 556.5,103.0 L 556.0,102.5 L 555.5,102.0 L 555.5,101.0 L 555.5,100.0 L 555.0,99.5 L 554.5,99.0 L 554.5,98.0 L 554.0,97.5 L 553.5,97.0 L 553.5,96.0 L 553.0,95.5 L 552.5,95.0 L 552.5,94.0 L 552.5,93.0 L 552.0,92.5 L 551.5,92.0 L 551.5,91.0 L 551.0,90.5 L 550.5,90.0 L 550.5,89.0 L 550.0,88.5 L 549.5,88.0 L 549.5,87.0 L 549.0,86.5 L 548.5,86.0 L 548.5,85.0 L 548.0,84.5 L 547.5,84.0 L 547.5,83.0 L 547.0,82.5 L 546.5,82.0 L 546.5,81.0 L 546.5,80.0 L 546.0,79.5 L 545.5,79.0 L 545.5,78.0 L 545.0,77.5 L 544.5,77.0 L 544.5,76.0 L 544.0,75.5 L 543.5,75.0 L 543.5,74.0 L 543.5,73.0 L 543.0,72.5 L 542.5,72.0 L 542.5,71.0 L 542.0,70.5 L 541.5,70.0 L 541.5,69.0 L 541.0,68.5 L 540.5,68.0 L 540.5,67.0 L 540.5,66.0 L 540.0,65.5 L 539.5,65.0 L 539.5,64.0 L 539.0,63.5 L 538.5,63.0 L 538.5,62.0 L 538.0,61.5 L 537.5,61.0 L 537.5,60.0 L 537.0,59.5 L 536.5,60.0 L 536.0,60.5 L 535.5,61.0 L 535.5,62.0 L 535.0,62.5 L 534.5,63.0 L 534.5,64.0 L 534.5,65.0 L 534.0,65.5 L 533.5,66.0 L 533.5,67.0 L 533.0,67.5 L 532.5,68.0 L 532.5,69.0 L 532.0,69.5 L 531.5,70.0 L 531.5,71.0 L 531.5,72.0 L 531.0,72.5 L 530.5,73.0 L 530.5,74.0 L 530.0,74.5 L 529.5,75.0 L 529.5,76.0 L 529.0,76.5 L 528.5,77.0 L 528.5,78.0 L 528.5,79.0 L 528.0,79.5 L 527.5,80.0 L 527.5,81.0 L 527.0,81.5 L 526.5,82.0 L 526.5,83.0 L 526.0,83.5 L 525.5,84.0 L 525.5,85.0 L 525.5,86.0 L 525.0,86.5 L 524.5,87.0 L 524.5,88.0 L 524.0,88.5 L 523.5,89.0 L 523.5,90.0 L 523.0,90.5 L 522.5,91.0 L 522.5,92.0 L 522.5,93.0 L 522.0,93.5 L 521.5,94.0 L 521.5,95.0 L 521.0,95.5 L 520.5,96.0 L 520.5,97.0 L 520.0,97.5 L 519.5,98.0 L 519.5,99.0 L 519.5,100.0 L 519.0,100.5 L 518.5,101.0 L 518.5,102.0 L 518.0,102.5 L 517.5,103.0 L 517.5,104.0 L 517.0,104.5 L 516.5,105.0 L 516.5,106.0 L 516.0,106.5 L 515.5,107.0 L 515.5,108.0 L 515.0,108.5 L 514.5,109.0 L 514.5,110.0 L 514.5,111.0 L 514.0,111.5 L 513.5,112.0 L 513.5,113.0 L 513.0,113.5 L 512.5,114.0 L 512.5,115.0 L 512.0,115.5 L 511.5,116.0 L 511.5,117.0 L 511.5,118.0 L 511.0,118.5 L 510.5,119.0 L 510.5,120.0 L 510.0,120.5 L 509.5,121.0 L 509.5,122.0 L 509.5,123.0 L 509.0,123.5 L 508.5,124.0 L 508.5,125.0 L 508.0,125.5 L 507.5,126.0 L 507.5,127.0 L 507.5,128.0 L 507.0,128.5 L 506.5,129.0 L 506.5,130.0 L 506.0,130.5 L 505.5,131.0 L 505.5,132.0 L 505.5,133.0 L 505.0,133.5 L 504.5,134.0 L 504.5,135.0 L 504.0,135.5 L 503.5,136.0 L 503.5,137.0 L 503.0,137.5 L 502.5,138.0 L 502.5,139.0 L 502.0,139.5 L 501.5,140.0 L 501.5,141.0 L 501.5,142.0 L 501.0,142.5 L 500.5,143.0 L 500.5,144.0 L 500.0,144.5 L 499.5,145.0 L 499.5,146.0 L 499.0,146.5 L 498.5,147.0 L 498.5,148.0 L 498.5,149.0 L 498.0,149.5 L 497.5,150.0 L 497.5,151.0 L 497.0,151.5 L 496.5,152.0 L 496.5,153.0 L 496.0,153.5 L 495.5,154.0 L 495.5,155.0 L 495.5,156.0 L 495.0,156.5 L 494.5,157.0 L 494.5,158.0 L 494.0,158.5 L 493.5,159.0 L 493.5,160.0 L 493.0,160.5 L 492.5,161.0 L 492.5,162.0 L 492.5,163.0 L 492.0,163.5 L 491.5,164.0 L 491.5,165.0 L 491.0,165.5 L 490.5,166.0 L 490.5,167.0 L 490.5,168.0 L 490.0,168.5 L 489.0,168.5 L 488.0,168.5 L 487.0,168.5 L 486.0,168.5 L 485.0,168.5 L 484.0,168.5 L 483.0,168.5 L 482.0,168.5 L 481.0,168.5 L 480.0,168.5 L 479.0,168.5 L 478.0,168.5 L 477.0,168.5 L 476.0,168.5 L 475.0,168.5 L 474.0,168.5 L 473.0,168.5 L 472.0,168.5 L 471.0,168.5 L 470.0,168.5 L 469.0,168.5 L 468.0,168.5 L 467.0,168.5 L 466.0,168.5 L 465.0,168.5 L 464.0,168.5 L 463.0,168.5 L 462.0,168.5 L 461.0,168.5 L 460.0,168.5 L 459.0,168.5 L 458.5,168.0 L 458.5,167.0 L 459.0,166.5 L 459.5,166.0 L 459.5,165.0 L 460.0,164.5 L 460.5,164.0 L 460.5,163.0 L 461.0,162.5 L 461.5,162.0 L 461.5,161.0 L 461.5,160.0 L 462.0,159.5 L 462.5,159.0 L 462.5,158.0 L 463.0,157.5 L 463.5,157.0 L 463.5,156.0 L 464.0,155.5 L 464.5,155.0 L 464.5,154.0 L 464.5,153.0 L 465.0,152.5 L 465.5,152.0 L 465.5,151.0 L 466.0,150.5 L 466.5,150.0 L 466.5,149.0 L 467.0,148.5 L 467.5,148.0 L 467.5,147.0 L 467.5,146.0 L 468.0,145.5 L 468.5,145.0 L 468.5,144.0 L 469.0,143.5 L 469.5,143.0 L 469.5,142.0 L 470.0,141.5 L 470.5,141.0 L 470.5,140.0 L 471.0,139.5 L 471.5,139.0 L 471.5,138.0 L 472.0,137.5 L 472.5,137.0 L 472.5,136.0 L 472.5,135.0 L 473.0,134.5 L 473.5,134.0 L 473.5,133.0 L 474.0,132.5 L 474.5,132.0 L 474.5,131.0 L 475.0,130.5 L 475.5,130.0 L 475.5,129.0 L 476.0,128.5 L 476.5,128.0 L 476.5,127.0 L 476.5,126.0 L 477.0,125.5 L 477.5,125.0 L 477.5,124.0 L 478.0,123.5 L 478.5,123.0 L 478.5,122.0 L 479.0,121.5 L 479.5,121.0 L 479.5,120.0 L 480.0,119.5 L 480.5,119.0 L 480.5,118.0 L 481.0,117.5 L 481.5,117.0 L 481.5,116.0 L 481.5,115.0 L 482.0,114.5 L 482.5,114.0 L 482.5,113.0 L 483.0,112.5 L 483.5,112.0 L 483.5,111.0 L 484.0,110.5 L 484.5,110.0 L 484.5,109.0 L 485.0,108.5 L 485.5,108.0 L 485.5,107.0 L 486.0,106.5 L 486.5,106.0 L 486.5,105.0 L 486.5,104.0 L 487.0,103.5 L 487.5,103.0 L 487.5,102.0 L 488.0,101.5 L 488.5,101.0 L 488.5,100.0 L 489.0,99.5 L 489.5,99.0 L 489.5,98.0 L 490.0,97.5 L 490.5,97.0 L 490.5,96.0 L 491.0,95.5 L 491.5,95.0 L 491.5,94.0 L 491.5,93.0 L 492.0,92.5 L 492.5,92.0 L 492.5,91.0 L 493.0,90.5 L 493.5,90.0 L 493.5,89.0 L 494.0,88.5 L 494.5,88.0 L 494.5,87.0 L 495.0,86.5 L 495.5,86.0 L 495.5,85.0 L 495.5,84.0 L 496.0,83.5 L 496.5,83.0 L 496.5,82.0 L 497.0,81.5 L 497.5,81.0 L 497.5,80.0 L 498.0,79.5 L 498.5,79.0 L 498.5,78.0 L 499.0,77.5 L 499.5,77.0 L 499.5,76.0 L 500.0,75.5 L 500.5,75.0 L 500.5,74.0 L 500.5,73.0 L 501.0,72.5 L 501.5,72.0 L 501.5,71.0 L 502.0,70.5 L 502.5,70.0 L 502.5,69.0 L 503.0,68.5 L 503.5,68.0 L 503.5,67.0 L 504.0,66.5 L 504.5,66.0 L 504.5,65.0 L 505.0,64.5 L 505.5,64.0 L 505.5,63.0 L 506.0,62.5 L 506.5,62.0 L 506.5,61.0 L 507.0,60.5 L 507.5,60.0 L 507.5,59.0 L 508.0,58.5 L 508.5,58.0 L 508.5,57.0 L 508.5,56.0 L 509.0,55.5 L 509.5,55.0 L 509.5,54.0 L 510.0,53.5 L 510.5,53.0 L 510.5,52.0 L 511.0,51.5 L 511.5,51.0 L 511.5,50.0 L 512.0,49.5 L 512.5,49.0 L 512.5,48.0 L 513.0,47.5 L 513.5,47.0 L 513.5,46.0 L 513.5,45.0 L 514.0,44.5 L 514.5,44.0 L 514.5,43.0 L 515.0,42.5 L 515.5,42.0 L 515.5,41.0 L 516.0,40.5 L 516.5,40.0 L 516.5,39.0 L 517.0,38.5 L 517.5,38.0 L 517.5,37.0 L 518.0,36.5 L 518.5,36.0 L 518.5,35.0 L 519.0,34.5 L 519.5,34.0 L 519.5,33.0 L 520.0,32.5 L 520.5,32.0 L 520.5,31.0 L 521.0,30.5 L 521.5,30.0 L 521.5,29.0 L 521.5,28.0 L 522.0,27.5 L 523.0,27.5 L 524.0,27.5 L 525.0,27.5 L 526.0,27.5 L 527.0,27.5 L 528.0,27.5 L 529.0,27.5 L 530.0,27.5 L 531.0,27.5 L 532.0,27.5 L 533.0,27.5 L 534.0,27.5 L 535.0,27.5 L 536.0,27.5 L 537.0,27.5 L 538.0,27.5 L 539.0,27.5 L 540.0,27.5 L 541.0,27.5 L 542.0,27.5 L 543.0,27.5 L 544.0,27.5 L 545.0,27.5 L 546.0,27.5 L 547.0,27.5 L 548.0,27.5 L 549.0,27.5 L 550.0,27.5 L 551.0,27.5 L 552.0,27.5 L 553.0,27.5 L 553.5,28.0 L 553.5,29.0 L 554.0,29.5 L 554.5,30.0 L 554.5,31.0 L 555.0,31.5 L 555.5,32.0 L 555.5,33.0 L 555.5,34.0 L 556.0,34.5 L 556.5,35.0 L 556.5,36.0 L 557.0,36.5 L 557.5,37.0 L 557.5,38.0 L 558.0,38.5 L 558.5,39.0 L 558.5,40.0 L 559.0,40.5 L 559.5,41.0 L 559.5,42.0 L 559.5,43.0 L 560.0,43.5 L 560.5,44.0 L 560.5,45.0 L 561.0,45.5 L 561.5,46.0 L 561.5,47.0 L 562.0,47.5 L 562.5,48.0 L 562.5,49.0 L 562.5,50.0 L 563.0,50.5 L 563.5,51.0 L 563.5,52.0 L 564.0,52.5 L 564.5,53.0 L 564.5,54.0 L 565.0,54.5 L 565.5,55.0 L 565.5,56.0 L 566.0,56.5 L 566.5,57.0 L 566.5,58.0 L 567.0,58.5 L 567.5,59.0 L 567.5,60.0 L 568.0,60.5 L 568.5,61.0 L 568.5,62.0 L 568.5,63.0 L 569.0,63.5 L 569.5,64.0 L 569.5,65.0 L 570.0,65.5 L 570.5,66.0 L 570.5,67.0 L 571.0,67.5 L 571.5,68.0 L 571.5,69.0 L 572.0,69.5 L 572.5,70.0 L 572.5,71.0 L 573.0,71.5 L 573.5,72.0 L 573.5,73.0 L 573.5,74.0 L 574.0,74.5 L 574.5,75.0 L 574.5,76.0 L 575.0,76.5 L 575.5,77.0 L 575.5,78.0 L 576.0,78.5 L 576.5,79.0 L 576.5,80.0 L 577.0,80.5 L 577.5,81.0 L 577.5,82.0 L 577.5,83.0 L 578.0,83.5 L 578.5,84.0 L 578.5,85.0 L 579.0,85.5 L 579.5,86.0 L 579.5,87.0 L 580.0,87.5 L 580.5,88.0 L 580.5,89.0 L 581.0,89.5 L 581.5,90.0 L 581.5,91.0 L 582.0,91.5 L 582.5,92.0 L 582.5,93.0 L 583.0,93.5 L 583.5,94.0 L 583.5,95.0 L 584.0,95.5 L 584.5,96.0 L 584.5,97.0 L 584.5,98.0 L 585.0,98.5 L 585.5,99.0 L 585.5,100.0 L 586.0,100.5 L 586.5,101.0 L 586.5,102.0 L 587.0,102.5 L 587.5,103.0 L 587.5,104.0 L 588.0,104.5 L 588.5,105.0 L 588.5,106.0 L 588.5,107.0 L 589.0,107.5 L 589.5,108.0 L 589.5,109.0 L 590.0,109.5 L 590.5,110.0 L 590.5,111.0 L 591.0,111.5 L 591.5,112.0 L 591.5,113.0 L 592.0,113.5 L 592.5,114.0 L 592.5,115.0 L 592.5,116.0 L 593.0,116.5 L 593.5,117.0 L 593.5,118.0 L 594.0,118.5 L 594.5,119.0 L 594.5,120.0 L 595.0,120.5 L 595.5,121.0 L 595.5,122.0 L 596.0,122.5 L 596.5,123.0 L 596.5,124.0 L 597.0,124.5 L 597.5,125.0 L 597.5,126.0 L 597.5,127.0 L 598.0,127.5 L 598.5,128.0 L 598.5,129.0 L 599.0,129.5 L 599.5,130.0 L 599.5,131.0 L 600.0,131.5 L 600.5,132.0 L 600.5,133.0 L 601.0,133.5 L 601.5,134.0 L 601.5,135.0 L 601.5,136.0 L 602.0,136.5 L 602.5,137.0 L 602.5,138.0 L 603.0,138.5 L 603.5,139.0 L 603.5,140.0 L 604.0,140.5 L 604.5,141.0 L 604.5,142.0 L 605.0,142.5 L 605.5,143.0 L 605.5,144.0 L 606.0,144.5 L 606.5,145.0 L 606.5,146.0 L 606.5,147.0 L 607.0,147.5 L 607.5,148.0 L 607.5,149.0 L 608.0,149.5 L 608.5,150.0 L 608.5,151.0 L 609.0,151.5 L 609.5,152.0 L 609.5,153.0 L 609.5,154.0 L 610.0,154.5 L 610.5,155.0 L 610.5,156.0 L 611.0,156.5 L 611.5,157.0 L 611.5,158.0 L 612.0,158.5 L 612.5,159.0 L 612.5,160.0 L 613.0,160.5 L 613.5,161.0 L 613.5,162.0 L 614.0,162.5 L 614.5,163.0 L 614.5,164.0 L 615.0,164.5 L 615.5,165.0 L 615.5,166.0 L 615.5,167.0 L 616.0,167.5 L 616.5,168.0 L 616.0,168.5 Z" fill="black"/>
	<path d="M 702.0,168.5 L 701.0,168.5 L 700.0,168.5 L 699.0,168.5 L 698.0,168.5 L 697.0,168.5 L 696.0,168.5 L 695.0,168.5 L 694.0,168.5 L 693.0,168.5 L 692.0,168.5 L 691.0,168.5 L 690.0,168.5 L 689.0,168.5 L 688.0,168.5 L 687.0,168.5 L 686.0,168.5 L 685.0,168.5 L 684.0,168.5 L 683.0,168.5 L 682.0,168.5 L 681.0,168.5 L 680.0,168.5 L 679.0,168.5 L 678.0,168.5 L 677.0,168.5 L 676.0,168.5 L 675.0,168.5 L 674.5,168.0 L 674.5,167.0 L 674.5,166.0 L 674.5,165.0 L 674.5,164.0 L 674.5,163.0 L 674.5,162.0 L 674.5,161.0 L 674.5,160.0 L 674.5,159.0 L 674.5,158.0 L 674.5,157.0 L 674.5,156.0 L 674.5,155.0 L 674.5,154.0 L 674.5,153.0 L 674.5,152.0 L 674.5,151.0 L 674.5,150.0 L 674.5,149.0 L 674.5,148.0 L 674.5,147.0 L 674.5,146.0 L 674.5,145.0 L 674.5,144.0 L 674.5,143.0 L 674.5,142.0 L 674.5,141.0 L 674.5,140.0 L 674.5,139.0 L 674.5,138.0 L 674.5,137.0 L 674.5,136.0 L 674.5,135.0 L 674.5,134.0 L 674.5,133.0 L 674.5,132.0 L 674.5,131.0 L 674.5,130.0 L 674.5,129.0 L 674.5,128.0 L 674.5,127.0 L 674.5,126.0 L 674.5,125.0 L 674.5,124.0 L 674.5,123.0 L 674.5,122.0 L 674.5,121.0 L 674.5,120.0 L 674.5,119.0 L 674.5,118.0 L 674.5,117.0 L 674.5,116.0 L 674.5,115.0 L 674.5,114.0 L 674.5,113.0 L 674.5,112.0 L 674.5,111.0 L 674.5,110.0 L 674.5,109.0 L 674.5,108.0 L 674.5,107.0 L 674.5,106.0 L 674.5,105.0 L 674.5,104.0 L 674.5,103.0 L 674.5,102.0 L 674.5,101.0 L 674.5,100.0 L 674.5,99.0 L 674.5,98.0 L 674.5,97.0 L 674.5,96.0 L 674.5,95.0 L 674.5,94.0 L 674.5,93.0 L 674.5,92.0 L 674.5,91.0 L 674.5,90.0 L 674.5,89.0 L 674.5,88.0 L 674.5,87.0 L 674.5,86.0 L 674.5,85.0 L 674.5,84.0 L 674.5,83.0 L 674.5,82.0 L 674.5,81.0 L 674.5,80.0 L 674.5,79.0 L 674.5,78.0 L 674.5,77.0 L 674.5,76.0 L 674.5,75.0 L 674.5,74.0 L 674.5,73.0 L 674.5,72.0 L 674.5,71.0 L 674.5,70.0 L 674.5,69.0 L 674.5,68.0 L 674.5,67.0 L 674.5,66.0 L 674.5,65.0 L 674.5,64.0 L 674.5,63.0 L 674.5,62.0 L 674.5,61.0 L 674.5,60.0 L 674.5,59.0 L 674.5,58.0 L 674.5,57.0 L 674.5,56.0 L 674.5,55.0 L 674.5,54.0 L 674.0,53.5 L 673.0,53.5 L 672.0,53.5 L 671.0,53.5 L 670.0,53.5 L 669.0,53.5 L 668.0,53.5 L 667.0,53.5 L 666.0,53.5 L 665.0,53.5 L 664.0,53.5 L 663.0,53.5 L 662.0,53.5 L 661.0,53.5 L 660.0,53.5 L 659.0,53.5 L 658.0,53.5 L 657.0,53.5 L 656.0,53.5 L 655.0,53.5 L 654.0,53.5 L 653.0,53.5 L 652.0,53.5 L 651.0,53.5 L 650.0,53.5 L 649.0,53.5 L 648.0,53.5 L 647.0,53.5 L 646.0,53.5 L 645.0,53.5 L 644.0,53.5 L 643.0,53.5 L 642.0,53.5 L 641.0,53.5 L 640.0,53.5 L 639.0,53.5 L 638.0,53.5 L 637.0,53.5 L 636.0,53.5 L 635.0,53.5 L 634.0,53.5 L 633.0,53.5 L 632.0,53.5 L 631.0,53.5 L 630.0,53.5 L 629.0,53.5 L 628.0,53.5 L 627.5,53.0 L 627.5,52.0 L 627.5,51.0 L 627.5,50.0 L 627.5,49.0 L 627.5,48.0 L 627.5,47.0 L 627.5,46.0 L 627.5,45.0 L 627.5,44.0 L 627.5,43.0 L 627.5,42.0 L 627.5,41.0 L 627.5,40.0 L 627.5,39.0 L 627.5,38.0 L 627.5,37.0 L 627.5,36.0 L 627.5,35.0 L 627.5,34.0 L 627.5,33.0 L 627.5,32.0 L 627.5,31.0 L 627.5,30.0 L 627.5,29.0 L 627.5,28.0 L 628.0,27.5 L 629.0,27.5 L 630.0,27.5 L 631.0,27.5 L 632.0,27.5 L 633.0,27.5 L 634.0,27.5 L 635.0,27.5 L 636.0,27.5 L 637.0,27.5 L 638.0,27.5 L 639.0,27.5 L 640.0,27.5 L 641.0,27.5 L 642.0,27.5 L 643.0,27.5 L 644.0,27.5 L 645.0,27.5 L 646.0,27.5 L 647.0,27.5 L 648.0,27.5 L 649.0,27.5 L 650.0,27.5 L 651.0,27.5 L 652.0,27.5 L 653.0,27.5 L 654.0,27.5 L 655.0,27.5 L 656.0,27.5 L 657.0,27.5 L 658.0,27.5 L 659.0,27.5 L 660.0,27.5 L 661.0,27.5 L 662.0,27.5 L 663.0,27.5 L 664.0,27.5 L 665.0,27.5 L 666.0,27.5 L 667.0,27.5 L 668.0,27.5 L 669.0,27.5 L 670.0,27.5 L 671.0,27.5 L 672.0,27.5 L 673.0,27.5 L 674.0,27.5 L 675.0,27.5 L 676.0,27.5 L 677.0,27.5 L 678.0,27.5 L 679.0,27.5 L 680.0,27.5 L 681.0,27.5 L 682.0,27.5 L 683.0,27.5 L 684.0,27.5 L 685.0,27.5 L 686.0,27.5 L 687.0,27.5 L 688.0,27.5 L 689.0,27.5 L 690.0,27.5 L 691.0,27.5 L 692.0,27.5 L 693.0,27.5 L 694.0,27.5 L 695.0,27.5 L 696.0,27.5 L 697.0,27.5 L 698.0,27.5 L 699.0,27.5 L 700.0,27.5 L 701.0,27.5 L 702.0,27.5 L 703.0,27.5 L 704.0,27.5 L 705.0,27.5 L 706.0,27.5 L 707.0,27.5 L 708.0,27.5 L 709.0,27.5 L 710.0,27.5 L 711.0,27.5 L 712.0,27.5 L 713.0,27.5 L 714.0,27.5 L 715.0,27.5 L 716.0,27.5 L 717.0,27.5 L 718.0,27.5 L 719.0,27.5 L 720.0,27.5 L 721.0,27.5 L 722.0,27.5 L 723.0,27.5 L 724.0,27.5 L 725.0,27.5 L 726.0,27.5 L 727.0,27.5 L 728.0,27.5 L 729.0,27.5 L 730.0,27.5 L 731.0,27.5 L 732.0,27.5 L 733.0,27.5 L 734.0,27.5 L 735.0,27.5 L 736.0,27.5 L 737.0,27.5 L 738.0,27.5 L 739.0,27.5 L 740.0,27.5 L 741.0,27.5 L 742.0,27.5 L 743.0,27.5 L 744.0,27.5 L 745.0,27.5 L 746.0,27.5 L 747.0,27.5 L 748.0,27.5 L 749.0,27.5 L 750.0,27.5 L 750.5,28.0 L 750.5,29.0 L 750.5,30.0 L 750.5,31.0 L 750.5,32.0 L 750.5,33.0 L 750.5,34.0 L 750.5,35.0 L 750.5,36.0 L 750.5,37.0 L 750.5,38.0 L 750.5,39.0 L 750.5,40.0 L 750.5,41.0 L 750.5,42.0 L 750.5,43.0 L 750.5,44.0 L 750.5,45.0 L 750.5,46.0 L 750.5,47.0 L 750.5,48.0 L 750.5,49.0 L 750.5,50.0 L 750.5,51.0 L 750.5,52.0 L 750.5,53.0 L 750.0,53.5 L 749.0,53.5 L 748.0,53.5 L 747.0,53.5 L 746.0,53.5 L 745.0,53.5 L 744.0,53.5 L 743.0,53.5 L 742.0,53.5 L 741.0,53.5 L 740.0,53.5 L 739.0,53.5 L 738.0,53.5 L 737.0,53.5 L 736.0,53.5 L 735.0,53.5 L 734.0,53.5 L 733.0,53.5 L 732.0,53.5 L 731.0,53.5 L 730.0,53.5 L 729.0,53.5 L 728.0,53.5 L 727.0,53.5 L 726.0,53.5 L 725.0,53.5 L 724.0,53.5 L 723.0,53.5 L 722.0,53.5 L 721.0,53.5 L 720.0,53.5 L 719.0,53.5 L 718.0,53.5 L 717.0,53.5 L 716.0,53.5 L 715.0,53.5 L 714.0,53.5 L 713.0,53.5 L 712.0,53.5 L 711.0,53.5 L 710.0,53.5 L 709.0,53.5 L 708.0,53.5 L 707.0,53.5 L 706.0,53.5 L 705.0,53.5 L 704.0,53.5 L 703.0,53.5 L 702.5,54.0 L 702.5,55.0 L 702.5,56.0 L 702.5,57.0 L 702.5,58.0 L 702.5,59.0 L 702.5,60.0 L 702.5,61.0 L 702.5,62.0 L 702.5,63.0 L 702.5,64.0 L 702.5,65.0 L 702.5,66.0 L 702.5,67.0 L 702.5,68.0 L 702.5,69.0 L 702.5,70.0 L 702.5,71.0 L 702.5,72.0 L 702.5,73.0 L 702.5,74.0 L 702.5,75.0 L 702.5,76.0 L 702.5,77.0 L 702.5,78.0 L 702.5,79.0 L 702.5,80.0 L 702.5,81.0 L 702.5,82.0 L 702.5,83.0 L 702.5,84.0 L 702.5,85.0 L 702.5,86.0 L 702.5,87.0 L 702.5,88.0 L 702.5,89.0 L 702.5,90.0 L 702.5,91.0 L 702.5,92.0 L 702.5,93.0 L 702.5,94.0 L 702.5,95.0 L 702.5,96.0 L 702.5,97.0 L 702.5,98.0 L 702.5,99.0 L 702.5,100.0 L 702.5,101.0 L 702.5,102.0 L 702.5,103.0 L 702.5,104.0 L 702.5,105.0 L 702.5,106.0 L 702.5,107.0 L 702.5,108.0 L 702.5,109.0 L 702.5,110.0 L 702.5,111.0 L 702.5,112.0 L 702.5,113.0 L 702.5,114.0 L 702.5,115.0 L 702.5,116.0 L 702.5,117.0 L 702.5,118.0 L 702.5,119.0 L 702.5,120.0 L 702.5,121.0 L 702.5,122.0 L 702.5,123.0 L 702.5,124.0 L 702.5,125.0 L 702.5,126.0 L 702.5,127.0 L 702.5,128.0 L 702.5,129.0 L 702.5,130.0 L 702.5,131.0 L 702.5,132.0 L 702.5,133.0 L 702.5,134.0 L 702.5,135.0 L 702.5,136.0 L 702.5,137.0 L 702.5,138.0 L 702.5,139.0 L 702.5,140.0 L 702.5,141.0 L 702.5,142.0 L 702.5,143.0 L 702.5,144.0 L 702.5,145.0 L 702.5,146.0 L 702.5,147.0 L 702.5,148.0 L 702.5,149.0 L 702.5,150.0 L 702.5,151.0 L 702.5,152.0 L 702.5,153.0 L 702.5,154.0 L 702.5,155.0 L 702.5,156.0 L 702.5,157.0 L 702.5,158.0 L 702.5,159.0 L 702.5,160.0 L 702.5,161.0 L 702.5,162.0 L 702.5,163.0 L 702.5,164.0 L 702.5,165.0 L 702.5,166.0 L 702.5,167.0 L 702.5,168.0 L 702.0,168.5 Z" fill="black"/>
	<path d="M 827.0,168.5 L 826.0,168.5 L 825.0,168.5 L 824.0,168.5 L 823.0,168.5 L 822.0,168.5 L 821.0,168.5 L 820.0,168.5 L 819.0,168.5 L 818.0,168.5 L 817.0,168.5 L 816.0,168.5 L 815.0,168.5 L 814.0,168.5 L 813.0,168.5 L 812.0,168.5 L 811.0,168.5 L 810.0,168.5 L 809.0,168.5 L 808.0,168.5 L 807.0,168.5 L 806.0,168.5 L 805.0,168.5 L 804.0,168.5 L 803.0,168.5 L 802.0,168.5 L 801.0,168.5 L 800.0,168.5 L 799.5,168.0 L 799.5,167.0 L 799.5,166.0 L 799.5,165.0 L 799.5,164.0 L 799.5,163.0 L 799.5,162.0 L 799.5,161.0 L 799.5,160.0 L 799.5,159.0 L 799.5,158.0 L 799.5,157.0 L 799.5,156.0 L 799.5,155.0 L 799.5,154.0 L 799.5,153.0 L 799.5,152.0 L 799.5,151.0 L 799.5,150.0 L 799.5,149.0 L 799.5,148.0 L 799.5,147.0 L 799.5,146.0 L 799.5,145.0 L 799.5,144.0 L 799.5,143.0 L 799.5,142.0 L 799.5,141.0 L 799.5,140.0 L 799.5,139.0 L 799.5,138.0 L 799.5,137.0 L 799.5,136.0 L 799.5,135.0 L 799.5,134.0 L 799.5,133.0 L 799.5,132.0 L 799.5,131.0 L 799.5,130.0 L 799.5,129.0 L 799.5,128.0 L 799.5,127.0 L 799.5,126.0 L 799.5,125.0 L 799.5,124.0 L 799.5,123.0 L 799.5,122.0 L 799.5,121.0 L 799.5,120.0 L 799.5,119.0 L 799.5,118.0 L 799.5,117.0 L 799.5,116.0 L 799.5,115.0 L 799.5,114.0 L 799.5,113.0 L 799.5,112.0 L 799.5,111.0 L 799.5,110.0 L 799.5,109.0 L 799.5,108.0 L 799.5,107.0 L 799.5,106.0 L 799.5,105.0 L 799.5,104.0 L 799.5,103.0 L 799.5,102.0 L 799.5,101.0 L 799.5,100.0 L 799.5,99.0 L 799.5,98.0 L 799.5,97.0 L 799.5,96.0 L 799.5,95.0 L 799.5,94.0 L 799.5,93.0 L 799.5,92.0 L 799.5,91.0 L 799.5,90.0 L 799.5,89.0 L 799.5,88.0 L 799.5,87.0 L 799.5,86.0 L 799.5,85.0 L 799.5,84.0 L 799.5,83.0 L 799.5,82.0 L 799.5,81.0 L 799.5,80.0 L 799.5,79.0 L 799.5,78.0 L 799.5,77.0 L 799.5,76.0 L 799.5,75.0 L 799.5,74.0 L 799.5,73.0 L 799.5,72.0 L 799.5,71.0 L 799.5,70.0 L 799.5,69.0 L 799.5,68.0 L 799.5,67.0 L 799.5,66.0 L 799.5,65.0 L 799.5,64.0 L 799.5,63.0 L 799.5,62.0 L 799.5,61.0 L 799.5,60.0 L 799.5,59.0 L 799.5,58.0 L 799.5,57.0 L 799.5,56.0 L 799.5,55.0 L 799.5,54.0 L 799.5,53.0 L 799.5,52.0 L 799.5,51.0 L 799.5,50.0 L 799.5,49.0 L 799.5,48.0 L 799.5,47.0 L 799.5,46.0 L 799.5,45.0 L 799.5,44.0 L 799.5,43.0 L 799.5,42.0 L 799.5,41.0 L 799.5,40.0 L 799.5,39.0 L 799.5,38.0 L 799.5,37.0 L 799.5,36.0 L 799.5,35.0 L 799.5,34.0 L 799.5,33.0 L 799.5,32.0 L 799.5,31.0 L 799.5,30.0 L 799.5,29.0 L 799.5,28.0 L 800.0,27.5 L 801.0,27.5 L 802.0,27.5 L 803.0,27.5 L 804.0,27.5 L 805.0,27.5 L 806.0,27.5 L 807.0,27.5 L 808.0,27.5 L 809.0,27.5 L 810.0,27.5 L 811.0,27.5 L 812.0,27.5 L 813.0,27.5 L 814.0,27.5 L 815.0,27.5 L 816.0,27.5 L 817.0,27.5 L 818.0,27.5 L 819.0,27.5 L 820.0,27.5 L 821.0,27.5 L 822.0,27.5 L 823.0,27.5 L 824.0,27.5 L 825.0,27.5 L 826.0,27.5 L 827.0,27.5 L 827.5,28.0 L 827.5,29.0 L 827.5,30.0 L 827.5,31.0 L 827.5,32.0 L 827.5,33.0 L 827.5,34.0 L 827.5,35.0 L 827.5,36.0 L 827.5,37.0 L 827.5,38.0 L 827.5,39.0 L 827.5,40.0 L 827.5,41.0 L 827.5,42.0 L 827.5,43.0 L 827.5,44.0 L 827.5,45.0 L 827.5,46.0 L 827.5,47.0 L 827.5,48.0 L 827.5,49.0 L 827.5,50.0 L 827.5,51.0 L 827.5,52.0 L 827.5,53.0 L 827.5,54.0 L 827.5,55.0 L 827.5,56.0 L 827.5,57.0 L 827.5,58.0 L 827.5,59.0 L 827.5,60.0 L 827.5,61.0 L 827.5,62.0 L 827.5,63.0 L 827.5,64.0 L 827.5,65.0 L 827.5,66.0 L 827.5,67.0 L 827.5,68.0 L 827.5,69.0 L 827.5,70.0 L 827.5,71.0 L 827.5,72.0 L 827.5,73.0 L 827.5,74.0 L 827.5,75.0 L 827.5,76.0 L 827.5,77.0 L 827.5,78.0 L 827.5,79.0 L 827.5,80.0 L 827.5,81.0 L 827.5,82.0 L 827.5,83.0 L 827.5,84.0 L 827.5,85.0 L 827.5,86.0 L 827.5,87.0 L 827.5,88.0 L 827.5,89.0 L 827.5,90.0 L 827.5,91.0 L 827.5,92.0 L 827.5,93.0 L 827.5,94.0 L 827.5,95.0 L 827.5,96.0 L 827.5,97.0 L 827.5,98.0 L 827.5,99.0 L 827.5,100.0 L 827.5,101.0 L 827.5,102.0 L 827.5,103.0 L 827.5,104.0 L 827.5,105.0 L 827.5,106.0 L 827.5,107.0 L 827.5,108.0 L 827.5,109.0 L 827.5,110.0 L 827.5,111.0 L 827.5,112.0 L 827.5,113.0 L 827.5,114.0 L 827.5,115.0 L 827.5,116.0 L 827.5,117.0 L 827.5,118.0 L 827.5,119.0 L 827.5,120.0 L 827.5,121.0 L 827.5,122.0 L 827.5,123.0 L 827.5,124.0 L 827.5,125.0 L 827.5,126.0 L 827.5,127.0 L 827.5,128.0 L 827.5,129.0 L 827.5,130.0 L 827.5,131.0 L 827.5,132.0 L 827.5,133.0 L 827.5,134.0 L 827.5,135.0 L 827.5,136.0 L 827.5,137.0 L 827.5,138.0 L 827.5,139.0 L 827.5,140.0 L 827.5,141.0 L 827.5,142.0 L 827.5,143.0 L 827.5,144.0 L 827.5,145.0 L 827.5,146.0 L 827.5,147.0 L 827.5,148.0 L 827.5,149.0 L 827.5,150.0 L 827.5,151.0 L 827.5,152.0 L 827.5,153.0 L 827.5,154.0 L 827.5,155.0 L 827.5,156.0 L 827.5,157.0 L 827.5,158.0 L 827.5,159.0 L 827.5,160.0 L 827.5,161.0 L 827.5,162.0 L 827.5,163.0 L 827.5,164.0 L 827.5,165.0 L 827.5,166.0 L 827.5,167.0 L 827.5,168.0 L 827.0,168.5 Z" fill="black"/>
</svg>
