<svg xmlns="http://www.w3.org/2000/svg" viewBox="0 0 34.00 34.00" data-guides="{&quot;vertical&quot;:[],&quot;horizontal&quot;:[]}"><defs/><path fill="#1e64d4" stroke="none" fill-opacity="1" stroke-width="1" stroke-opacity="1" id="tSvgaf2561c74a" title="Path 2" d="M32.8987 33C32.8312 33 32.7637 33 32.6962 33C32.6287 33 32.5612 33 32.4937 33C32.4262 33 32.3586 33 32.2911 33C32.2236 33 32.1561 33 32.0886 33C32.0211 33 31.9536 33 31.8861 33C31.8186 33 31.7511 33 31.6835 33C31.616 33 31.5485 33 31.481 33C31.4135 33 31.346 33 31.2785 33C31.211 33 31.1435 33 31.0759 33C31.0084 33 30.9409 33 30.8734 33C30.8059 33 30.7384 33 30.6709 33C30.6034 33 30.5359 33 30.4684 33C30.4008 33 30.3333 33 30.2658 33C30.1983 33 30.1308 33 30.0633 33C29.9958 33 29.9283 33 29.8608 33C29.7932 33 29.7257 33 29.6582 33C29.5907 33 29.5232 33 29.4557 33C29.3882 33 29.3207 33 29.2532 33C29.1857 33 29.1181 33 29.0506 33C28.9831 33 28.9156 33 28.8481 33C28.7806 33 28.7131 33 28.6456 33C28.5781 33 28.5105 33 28.443 33C28.3755 33 28.308 33 28.2405 33C28.173 33 28.1055 33 28.038 33C27.9705 33 27.903 33 27.8354 33C27.7679 33 27.7004 33 27.6329 33C27.5654 33 27.4979 33 27.4304 33C27.3629 33 27.2954 33 27.2278 33C27.1603 33 27.0928 33 27.0253 33C26.9578 33 26.8903 33 26.8228 33C26.7553 33 26.6878 33 26.6203 33C26.5527 33 26.4852 33 26.4177 33C26.384 32.9622 26.3502 32.9243 26.3165 32.8865C26.3165 32.8109 26.3165 32.7352 26.3165 32.6596C26.2827 32.6217 26.2489 32.5839 26.2152 32.5461C26.1814 32.5083 26.1477 32.4704 26.1139 32.4326C26.1139 32.357 26.1139 32.2813 26.1139 32.2057C26.1139 32.13 26.1139 32.0544 26.1139 31.9787C26.0802 31.9409 26.0464 31.9031 26.0127 31.8652C25.9789 31.8274 25.9451 31.7896 25.9114 31.7518C25.9114 31.6761 25.9114 31.6005 25.9114 31.5248C25.8776 31.487 25.8439 31.4492 25.8101 31.4113C25.7764 31.3735 25.7426 31.3357 25.7089 31.2979C25.7089 31.2222 25.7089 31.1466 25.7089 31.0709C25.6751 31.0331 25.6414 30.9953 25.6076 30.9574C25.5738 30.9196 25.5401 30.8818 25.5063 30.844C25.5063 30.7683 25.5063 30.6927 25.5063 30.617C25.5063 30.5414 25.5063 30.4657 25.5063 30.3901C25.4726 30.3522 25.4388 30.3144 25.4051 30.2766C25.3713 30.2388 25.3376 30.2009 25.3038 30.1631C25.3038 30.0875 25.3038 30.0118 25.3038 29.9362C25.27 29.8983 25.2363 29.8605 25.2025 29.8227C25.1688 29.7849 25.135 29.747 25.1013 29.7092C25.1013 29.6336 25.1013 29.5579 25.1013 29.4823C25.0675 29.4444 25.0338 29.4066 25 29.3688C24.9662 29.331 24.9325 29.2931 24.8987 29.2553C24.8987 29.1797 24.8987 29.104 24.8987 29.0284C24.8987 28.9527 24.8987 28.8771 24.8987 28.8014C24.865 28.7636 24.8312 28.7258 24.7975 28.6879C24.7637 28.6501 24.73 28.6123 24.6962 28.5745C24.6962 28.4988 24.6962 28.4232 24.6962 28.3475C24.6624 28.3097 24.6287 28.2719 24.5949 28.234C24.5612 28.1962 24.5274 28.1584 24.4937 28.1206C24.4937 28.0449 24.4937 27.9693 24.4937 27.8936C24.4937 27.818 24.4937 27.7423 24.4937 27.6667C24.4599 27.6288 24.4262 27.591 24.3924 27.5532C24.3586 27.5154 24.3249 27.4775 24.2911 27.4397C24.2911 27.3641 24.2911 27.2884 24.2911 27.2128C24.2574 27.1749 24.2236 27.1371 24.1899 27.0993C24.1561 27.0615 24.1224 27.0236 24.0886 26.9858C24.0886 26.9102 24.0886 26.8345 24.0886 26.7589C24.0549 26.721 24.0211 26.6832 23.9873 26.6454C23.9536 26.6076 23.9198 26.5697 23.8861 26.5319C23.8523 26.4941 23.8186 26.4563 23.7848 26.4184C23.7173 26.4184 23.6498 26.4184 23.5823 26.4184C23.5148 26.4184 23.4473 26.4184 23.3797 26.4184C23.3122 26.4184 23.2447 26.4184 23.1772 26.4184C23.1097 26.4184 23.0422 26.4184 22.9747 26.4184C22.9072 26.4184 22.8397 26.4184 22.7722 26.4184C22.7046 26.4184 22.6371 26.4184 22.5696 26.4184C22.5021 26.4184 22.4346 26.4184 22.3671 26.4184C22.2996 26.4184 22.2321 26.4184 22.1646 26.4184C22.097 26.4184 22.0295 26.4184 21.962 26.4184C21.8945 26.4184 21.827 26.4184 21.7595 26.4184C21.692 26.4184 21.6245 26.4184 21.557 26.4184C21.4895 26.4184 21.4219 26.4184 21.3544 26.4184C21.2869 26.4184 21.2194 26.4184 21.1519 26.4184C21.0844 26.4184 21.0169 26.4184 20.9494 26.4184C20.8819 26.4184 20.8143 26.4184 20.7468 26.4184C20.6793 26.4184 20.6118 26.4184 20.5443 26.4184C20.4768 26.4184 20.4093 26.4184 20.3418 26.4184C20.2743 26.4184 20.2068 26.4184 20.1392 26.4184C20.0717 26.4184 20.0042 26.4184 19.9367 26.4184C19.8692 26.4184 19.8017 26.4184 19.7342 26.4184C19.6667 26.4184 19.5992 26.4184 19.5316 26.4184C19.4641 26.4184 19.3966 26.4184 19.3291 26.4184C19.2616 26.4184 19.1941 26.4184 19.1266 26.4184C19.0591 26.4184 18.9916 26.4184 18.9241 26.4184C18.8565 26.4184 18.789 26.4184 18.7215 26.4184C18.654 26.4184 18.5865 26.4184 18.519 26.4184C18.4515 26.4184 18.384 26.4184 18.3165 26.4184C18.2489 26.4184 18.1814 26.4184 18.1139 26.4184C18.0464 26.4184 17.9789 26.4184 17.9114 26.4184C17.8439 26.4184 17.7764 26.4184 17.7089 26.4184C17.6414 26.4184 17.5738 26.4184 17.5063 26.4184C17.4388 26.4184 17.3713 26.4184 17.3038 26.4184C17.2363 26.4184 17.1688 26.4184 17.1013 26.4184C17.0338 26.4184 16.9662 26.4184 16.8987 26.4184C16.8312 26.4184 16.7637 26.4184 16.6962 26.4184C16.6287 26.4184 16.5612 26.4184 16.4937 26.4184C16.4262 26.4184 16.3586 26.4184 16.2911 26.4184C16.2236 26.4184 16.1561 26.4184 16.0886 26.4184C16.0211 26.4184 15.9536 26.4184 15.8861 26.4184C15.8186 26.4184 15.7511 26.4184 15.6835 26.4184C15.616 26.4184 15.5485 26.4184 15.481 26.4184C15.4135 26.4184 15.346 26.4184 15.2785 26.4184C15.211 26.4184 15.1435 26.4184 15.0759 26.4184C15.0084 26.4184 14.9409 26.4184 14.8734 26.4184C14.8059 26.4184 14.7384 26.4184 14.6709 26.4184C14.6034 26.4184 14.5359 26.4184 14.4684 26.4184C14.4008 26.4184 14.3333 26.4184 14.2658 26.4184C14.1983 26.4184 14.1308 26.4184 14.0633 26.4184C13.9958 26.4184 13.9283 26.4184 13.8608 26.4184C13.7932 26.4184 13.7257 26.4184 13.6582 26.4184C13.5907 26.4184 13.5232 26.4184 13.4557 26.4184C13.3882 26.4184 13.3207 26.4184 13.2532 26.4184C13.1857 26.4184 13.1181 26.4184 13.0506 26.4184C12.9831 26.4184 12.9156 26.4184 12.8481 26.4184C12.7806 26.4184 12.7131 26.4184 12.6456 26.4184C12.6118 26.3806 12.5781 26.3428 12.5443 26.305C12.5443 26.2293 12.5443 26.1537 12.5443 26.078C12.5781 26.0402 12.6118 26.0024 12.6456 25.9645C12.6793 25.9267 12.7131 25.8889 12.7468 25.8511C12.7468 25.7754 12.7468 25.6998 12.7468 25.6241C12.7468 25.5485 12.7468 25.4728 12.7468 25.3972C12.7806 25.3593 12.8143 25.3215 12.8481 25.2837C12.8819 25.2459 12.9156 25.208 12.9494 25.1702C12.9494 25.0946 12.9494 25.0189 12.9494 24.9433C12.9494 24.8676 12.9494 24.792 12.9494 24.7163C12.9831 24.6785 13.0169 24.6407 13.0506 24.6028C13.0844 24.565 13.1181 24.5272 13.1519 24.4894C13.1519 24.4137 13.1519 24.3381 13.1519 24.2624C13.1857 24.2246 13.2194 24.1868 13.2532 24.1489C13.2869 24.1111 13.3207 24.0733 13.3544 24.0355C13.3544 23.9598 13.3544 23.8842 13.3544 23.8085C13.3544 23.7329 13.3544 23.6572 13.3544 23.5816C13.3882 23.5437 13.4219 23.5059 13.4557 23.4681C13.4895 23.4303 13.5232 23.3924 13.557 23.3546C13.557 23.279 13.557 23.2033 13.557 23.1277C13.557 23.052 13.557 22.9764 13.557 22.9007C13.5907 22.8629 13.6245 22.8251 13.6582 22.7872C13.692 22.7494 13.7257 22.7116 13.7595 22.6738C13.7595 22.5981 13.7595 22.5225 13.7595 22.4468C13.7932 22.409 13.827 22.3712 13.8608 22.3333C13.8945 22.2955 13.9283 22.2577 13.962 22.2199C13.962 22.1442 13.962 22.0686 13.962 21.9929C13.962 21.9173 13.962 21.8416 13.962 21.766C13.9958 21.7281 14.0295 21.6903 14.0633 21.6525C14.097 21.6147 14.1308 21.5768 14.1646 21.539C14.1646 21.4634 14.1646 21.3877 14.1646 21.3121C14.1983 21.2742 14.2321 21.2364 14.2658 21.1986C14.2996 21.1608 14.3333 21.1229 14.3671 21.0851C14.4008 21.0473 14.4346 21.0095 14.4684 20.9716C14.5359 20.9716 14.6034 20.9716 14.6709 20.9716C14.7384 20.9716 14.8059 20.9716 14.8734 20.9716C14.9409 20.9716 15.0084 20.9716 15.0759 20.9716C15.1435 20.9716 15.211 20.9716 15.2785 20.9716C15.346 20.9716 15.4135 20.9716 15.481 20.9716C15.5485 20.9716 15.616 20.9716 15.6835 20.9716C15.7511 20.9716 15.8186 20.9716 15.8861 20.9716C15.9536 20.9716 16.0211 20.9716 16.0886 20.9716C16.1561 20.9716 16.2236 20.9716 16.2911 20.9716C16.3586 20.9716 16.4262 20.9716 16.4937 20.9716C16.5612 20.9716 16.6287 20.9716 16.6962 20.9716C16.7637 20.9716 16.8312 20.9716 16.8987 20.9716C16.9662 20.9716 17.0338 20.9716 17.1013 20.9716C17.1688 20.9716 17.2363 20.9716 17.3038 20.9716C17.3713 20.9716 17.4388 20.9716 17.5063 20.9716C17.5738 20.9716 17.6414 20.9716 17.7089 20.9716C17.7764 20.9716 17.8439 20.9716 17.9114 20.9716C17.9789 20.9716 18.0464 20.9716 18.1139 20.9716C18.1814 20.9716 18.2489 20.9716 18.3165 20.9716C18.384 20.9716 18.4515 20.9716 18.519 20.9716C18.5865 20.9716 18.654 20.9716 18.7215 20.9716C18.789 20.9716 18.8565 20.9716 18.9241 20.9716C18.9916 20.9716 19.0591 20.9716 19.1266 20.9716C19.1941 20.9716 19.2616 20.9716 19.3291 20.9716C19.3966 20.9716 19.4641 20.9716 19.5316 20.9716C19.5992 20.9716 19.6667 20.9716 19.7342 20.9716C19.8017 20.9716 19.8692 20.9716 19.9367 20.9716C20.0042 20.9716 20.0717 20.9716 20.1392 20.9716C20.2068 20.9716 20.2743 20.9716 20.3418 20.9716C20.4093 20.9716 20.4768 20.9716 20.5443 20.9716C20.6118 20.9716 20.6793 20.9716 20.7468 20.9716C20.8143 20.9716 20.8819 20.9716 20.9494 20.9716C21.0169 20.9716 21.0844 20.9716 21.1519 20.9716C21.2194 20.9716 21.2869 20.9716 21.3544 20.9716C21.4219 20.9716 21.4895 20.9716 21.557 20.9716C21.5907 20.9338 21.6245 20.896 21.6582 20.8582C21.6582 20.7825 21.6582 20.7069 21.6582 20.6312C21.6582 20.5556 21.6582 20.4799 21.6582 20.4043C21.6245 20.3664 21.5907 20.3286 21.557 20.2908C21.5232 20.253 21.4895 20.2151 21.4557 20.1773C21.4557 20.1017 21.4557 20.026 21.4557 19.9504C21.4219 19.9125 21.3882 19.8747 21.3544 19.8369C21.3207 19.7991 21.2869 19.7612 21.2532 19.7234C21.2532 19.6478 21.2532 19.5721 21.2532 19.4965C21.2532 19.4208 21.2532 19.3452 21.2532 19.2695C21.2194 19.2317 21.1857 19.1939 21.1519 19.156C21.1181 19.1182 21.0844 19.0804 21.0506 19.0426C21.0506 18.9669 21.0506 18.8913 21.0506 18.8156C21.0169 18.7778 20.9831 18.74 20.9494 18.7021C20.9156 18.6643 20.8819 18.6265 20.8481 18.5887C20.8481 18.513 20.8481 18.4374 20.8481 18.3617C20.8143 18.3239 20.7806 18.2861 20.7468 18.2482C20.7131 18.2104 20.6793 18.1726 20.6456 18.1348C20.6456 18.0591 20.6456 17.9835 20.6456 17.9078C20.6456 17.8322 20.6456 17.7565 20.6456 17.6809C20.6118 17.643 20.5781 17.6052 20.5443 17.5674C20.5105 17.5296 20.4768 17.4917 20.443 17.4539C20.443 17.3783 20.443 17.3026 20.443 17.227C20.4093 17.1891 20.3755 17.1513 20.3418 17.1135C20.308 17.0757 20.2743 17.0378 20.2405 17C20.2405 16.9243 20.2405 16.8487 20.2405 16.773C20.2405 16.6974 20.2405 16.6217 20.2405 16.5461C20.2068 16.5083 20.173 16.4704 20.1392 16.4326C20.1055 16.3948 20.0717 16.357 20.038 16.3191C20.038 16.2435 20.038 16.1678 20.038 16.0922C20.0042 16.0544 19.9705 16.0165 19.9367 15.9787C19.903 15.9409 19.8692 15.9031 19.8354 15.8652C19.8354 15.7896 19.8354 15.7139 19.8354 15.6383C19.8017 15.6005 19.7679 15.5626 19.7342 15.5248C19.7004 15.487 19.6667 15.4492 19.6329 15.4113C19.6329 15.3357 19.6329 15.26 19.6329 15.1844C19.6329 15.1087 19.6329 15.0331 19.6329 14.9574C19.5992 14.9196 19.5654 14.8818 19.5316 14.844C19.4979 14.8061 19.4641 14.7683 19.4304 14.7305C19.4304 14.6548 19.4304 14.5792 19.4304 14.5035C19.3966 14.4657 19.3629 14.4279 19.3291 14.3901C19.2954 14.3522 19.2616 14.3144 19.2278 14.2766C19.2278 14.2009 19.2278 14.1253 19.2278 14.0496C19.1941 14.0118 19.1603 13.974 19.1266 13.9362C19.0928 13.8983 19.0591 13.8605 19.0253 13.8227C19.0253 13.747 19.0253 13.6714 19.0253 13.5957C19.0253 13.5201 19.0253 13.4444 19.0253 13.3688C18.9916 13.331 18.9578 13.2931 18.9241 13.2553C18.8903 13.2175 18.8565 13.1797 18.8228 13.1418C18.8228 13.0662 18.8228 12.9905 18.8228 12.9149C18.789 12.8771 18.7553 12.8392 18.7215 12.8014C18.6878 12.7636 18.654 12.7258 18.6203 12.6879C18.6203 12.6123 18.6203 12.5366 18.6203 12.461C18.5865 12.4232 18.5527 12.3853 18.519 12.3475C18.4852 12.3097 18.4515 12.2719 18.4177 12.234C18.4177 12.1584 18.4177 12.0827 18.4177 12.0071C18.4177 11.9314 18.4177 11.8558 18.4177 11.7801C18.384 11.7423 18.3502 11.7045 18.3165 11.6667C18.2827 11.6288 18.2489 11.591 18.2152 11.5532C18.2152 11.4775 18.2152 11.4019 18.2152 11.3262C18.1814 11.2884 18.1477 11.2506 18.1139 11.2128C18.0802 11.1749 18.0464 11.1371 18.0127 11.0993C18.0127 11.0236 18.0127 10.948 18.0127 10.8723C17.9789 10.8345 17.9451 10.7967 17.9114 10.7589C17.8776 10.721 17.8439 10.6832 17.8101 10.6454C17.8101 10.5697 17.8101 10.4941 17.8101 10.4184C17.8101 10.3428 17.8101 10.2671 17.8101 10.1915C17.7764 10.1537 17.7426 10.1158 17.7089 10.078C17.6751 10.0402 17.6414 10.0024 17.6076 9.9645C17.6076 9.8889 17.6076 9.8132 17.6076 9.7376C17.5738 9.6998 17.5401 9.6619 17.5063 9.6241C17.4726 9.5863 17.4388 9.5485 17.4051 9.5106C17.4051 9.435 17.4051 9.3593 17.4051 9.2837C17.3713 9.2459 17.3376 9.208 17.3038 9.1702C17.27 9.1324 17.2363 9.0946 17.2025 9.0567C17.2025 8.9811 17.2025 8.9054 17.2025 8.8298C17.2025 8.7541 17.2025 8.6785 17.2025 8.6028C17.1688 8.565 17.135 8.5272 17.1013 8.4894C17.0675 8.4515 17.0338 8.4137 17 8.3759C16.9662 8.3381 16.9325 8.3002 16.8987 8.2624C16.865 8.3002 16.8312 8.3381 16.7975 8.3759C16.7637 8.4137 16.73 8.4515 16.6962 8.4894C16.6624 8.5272 16.6287 8.565 16.5949 8.6028C16.5949 8.6785 16.5949 8.7541 16.5949 8.8298C16.5612 8.8676 16.5274 8.9054 16.4937 8.9433C16.4599 8.9811 16.4262 9.0189 16.3924 9.0567C16.3924 9.1324 16.3924 9.208 16.3924 9.2837C16.3924 9.3593 16.3924 9.435 16.3924 9.5106C16.3586 9.5485 16.3249 9.5863 16.2911 9.6241C16.2574 9.6619 16.2236 9.6998 16.1899 9.7376C16.1899 9.8132 16.1899 9.8889 16.1899 9.9645C16.1561 10.0024 16.1224 10.0402 16.0886 10.078C16.0549 10.1158 16.0211 10.1537 15.9873 10.1915C15.9873 10.2671 15.9873 10.3428 15.9873 10.4184C15.9873 10.4941 15.9873 10.5697 15.9873 10.6454C15.9536 10.6832 15.9198 10.721 15.8861 10.7589C15.8523 10.7967 15.8186 10.8345 15.7848 10.8723C15.7848 10.948 15.7848 11.0236 15.7848 11.0993C15.7511 11.1371 15.7173 11.1749 15.6835 11.2128C15.6498 11.2506 15.616 11.2884 15.5823 11.3262C15.5823 11.4019 15.5823 11.4775 15.5823 11.5532C15.5485 11.591 15.5148 11.6288 15.481 11.6667C15.4473 11.7045 15.4135 11.7423 15.3797 11.7801C15.3797 11.8558 15.3797 11.9314 15.3797 12.0071C15.3797 12.0827 15.3797 12.1584 15.3797 12.234C15.346 12.2719 15.3122 12.3097 15.2785 12.3475C15.2447 12.3853 15.211 12.4232 15.1772 12.461C15.1772 12.5366 15.1772 12.6123 15.1772 12.6879C15.1435 12.7258 15.1097 12.7636 15.0759 12.8014C15.0422 12.8392 15.0084 12.8771 14.9747 12.9149C14.9747 12.9905 14.9747 13.0662 14.9747 13.1418C14.9409 13.1797 14.9072 13.2175 14.8734 13.2553C14.8397 13.2931 14.8059 13.331 14.7722 13.3688C14.7722 13.4444 14.7722 13.5201 14.7722 13.5957C14.7384 13.6336 14.7046 13.6714 14.6709 13.7092C14.6371 13.747 14.6034 13.7849 14.5696 13.8227C14.5696 13.8983 14.5696 13.974 14.5696 14.0496C14.5696 14.1253 14.5696 14.2009 14.5696 14.2766C14.5359 14.3144 14.5021 14.3522 14.4684 14.3901C14.4346 14.4279 14.4008 14.4657 14.3671 14.5035C14.3671 14.5792 14.3671 14.6548 14.3671 14.7305C14.3333 14.7683 14.2996 14.8061 14.2658 14.844C14.2321 14.8818 14.1983 14.9196 14.1646 14.9574C14.1646 15.0331 14.1646 15.1087 14.1646 15.1844C14.1308 15.2222 14.097 15.26 14.0633 15.2979C14.0295 15.3357 13.9958 15.3735 13.962 15.4113C13.962 15.487 13.962 15.5626 13.962 15.6383C13.9283 15.6761 13.8945 15.7139 13.8608 15.7518C13.827 15.7896 13.7932 15.8274 13.7595 15.8652C13.7595 15.9409 13.7595 16.0165 13.7595 16.0922C13.7257 16.13 13.692 16.1678 13.6582 16.2057C13.6245 16.2435 13.5907 16.2813 13.557 16.3191C13.557 16.3948 13.557 16.4704 13.557 16.5461C13.557 16.6217 13.557 16.6974 13.557 16.773C13.5232 16.8109 13.4895 16.8487 13.4557 16.8865C13.4219 16.9243 13.3882 16.9622 13.3544 17C13.3544 17.0757 13.3544 17.1513 13.3544 17.227C13.3207 17.2648 13.2869 17.3026 13.2532 17.3404C13.2194 17.3783 13.1857 17.4161 13.1519 17.4539C13.1519 17.5296 13.1519 17.6052 13.1519 17.6809C13.1181 17.7187 13.0844 17.7565 13.0506 17.7943C13.0169 17.8322 12.9831 17.87 12.9494 17.9078C12.9494 17.9835 12.9494 18.0591 12.9494 18.1348C12.9494 18.2104 12.9494 18.2861 12.9494 18.3617C12.9156 18.3995 12.8819 18.4374 12.8481 18.4752C12.8143 18.513 12.7806 18.5508 12.7468 18.5887C12.7468 18.6643 12.7468 18.74 12.7468 18.8156C12.7131 18.8534 12.6793 18.8913 12.6456 18.9291C12.6118 18.9669 12.5781 19.0047 12.5443 19.0426C12.5443 19.1182 12.5443 19.1939 12.5443 19.2695C12.5105 19.3073 12.4768 19.3452 12.443 19.383C12.4093 19.4208 12.3755 19.4586 12.3418 19.4965C12.3418 19.5721 12.3418 19.6478 12.3418 19.7234C12.3418 19.7991 12.3418 19.8747 12.3418 19.9504C12.308 19.9882 12.2743 20.026 12.2405 20.0638C12.2068 20.1017 12.173 20.1395 12.1392 20.1773C12.1392 20.253 12.1392 20.3286 12.1392 20.4043C12.1055 20.4421 12.0717 20.4799 12.038 20.5177C12.0042 20.5556 11.9705 20.5934 11.9367 20.6312C11.9367 20.7069 11.9367 20.7825 11.9367 20.8582C11.903 20.896 11.8692 20.9338 11.8354 20.9716C11.8017 21.0095 11.7679 21.0473 11.7342 21.0851C11.7342 21.1608 11.7342 21.2364 11.7342 21.3121C11.7342 21.3877 11.7342 21.4634 11.7342 21.539C11.7004 21.5768 11.6667 21.6147 11.6329 21.6525C11.5992 21.6903 11.5654 21.7281 11.5316 21.766C11.5316 21.8416 11.5316 21.9173 11.5316 21.9929C11.4979 22.0307 11.4641 22.0686 11.4304 22.1064C11.3966 22.1442 11.3629 22.182 11.3291 22.2199C11.3291 22.2955 11.3291 22.3712 11.3291 22.4468C11.2954 22.4846 11.2616 22.5225 11.2278 22.5603C11.1941 22.5981 11.1603 22.6359 11.1266 22.6738C11.1266 22.7494 11.1266 22.8251 11.1266 22.9007C11.0928 22.9385 11.0591 22.9764 11.0253 23.0142C10.9916 23.052 10.9578 23.0898 10.9241 23.1277C10.9241 23.2033 10.9241 23.279 10.9241 23.3546C10.9241 23.4303 10.9241 23.5059 10.9241 23.5816C10.8903 23.6194 10.8565 23.6572 10.8228 23.695C10.789 23.7329 10.7553 23.7707 10.7215 23.8085C10.7215 23.8842 10.7215 23.9598 10.7215 24.0355C10.6878 24.0733 10.654 24.1111 10.6203 24.1489C10.5865 24.1868 10.5527 24.2246 10.519 24.2624C10.519 24.3381 10.519 24.4137 10.519 24.4894C10.4852 24.5272 10.4515 24.565 10.4177 24.6028C10.384 24.6407 10.3502 24.6785 10.3165 24.7163C10.3165 24.792 10.3165 24.8676 10.3165 24.9433C10.3165 25.0189 10.3165 25.0946 10.3165 25.1702C10.2827 25.208 10.2489 25.2459 10.2152 25.2837C10.1814 25.3215 10.1477 25.3593 10.1139 25.3972C10.1139 25.4728 10.1139 25.5485 10.1139 25.6241C10.0802 25.6619 10.0464 25.6998 10.0127 25.7376C9.9789 25.7754 9.9451 25.8132 9.9114 25.8511C9.9114 25.9267 9.9114 26.0024 9.9114 26.078C9.8776 26.1158 9.8439 26.1537 9.8101 26.1915C9.7764 26.2293 9.7426 26.2671 9.7089 26.305C9.7089 26.3806 9.7089 26.4563 9.7089 26.5319C9.7089 26.6076 9.7089 26.6832 9.7089 26.7589C9.6751 26.7967 9.6414 26.8345 9.6076 26.8723C9.5738 26.9102 9.5401 26.948 9.5063 26.9858C9.5063 27.0615 9.5063 27.1371 9.5063 27.2128C9.4726 27.2506 9.4388 27.2884 9.4051 27.3262C9.3713 27.3641 9.3376 27.4019 9.3038 27.4397C9.3038 27.5154 9.3038 27.591 9.3038 27.6667C9.3038 27.7423 9.3038 27.818 9.3038 27.8936C9.27 27.9314 9.2363 27.9693 9.2025 28.0071C9.1688 28.0449 9.135 28.0827 9.1013 28.1206C9.1013 28.1962 9.1013 28.2719 9.1013 28.3475C9.0675 28.3853 9.0338 28.4232 9 28.461C8.9662 28.4988 8.9325 28.5366 8.8987 28.5745C8.8987 28.6501 8.8987 28.7258 8.8987 28.8014C8.8987 28.8771 8.8987 28.9527 8.8987 29.0284C8.865 29.0662 8.8312 29.104 8.7975 29.1418C8.7637 29.1797 8.73 29.2175 8.6962 29.2553C8.6962 29.331 8.6962 29.4066 8.6962 29.4823C8.6624 29.5201 8.6287 29.5579 8.5949 29.5957C8.5612 29.6336 8.5274 29.6714 8.4937 29.7092C8.4937 29.7849 8.4937 29.8605 8.4937 29.9362C8.4599 29.974 8.4262 30.0118 8.3924 30.0496C8.3586 30.0875 8.3249 30.1253 8.2911 30.1631C8.2911 30.2388 8.2911 30.3144 8.2911 30.3901C8.2911 30.4657 8.2911 30.5414 8.2911 30.617C8.2574 30.6548 8.2236 30.6927 8.1899 30.7305C8.1561 30.7683 8.1224 30.8061 8.0886 30.844C8.0886 30.9196 8.0886 30.9953 8.0886 31.0709C8.0549 31.1087 8.0211 31.1466 7.9873 31.1844C7.9536 31.2222 7.9198 31.26 7.8861 31.2979C7.8861 31.3735 7.8861 31.4492 7.8861 31.5248C7.8861 31.6005 7.8861 31.6761 7.8861 31.7518C7.8523 31.7896 7.8186 31.8274 7.7848 31.8652C7.7511 31.9031 7.7173 31.9409 7.6835 31.9787C7.6835 32.0544 7.6835 32.13 7.6835 32.2057C7.6498 32.2435 7.616 32.2813 7.5823 32.3191C7.5485 32.357 7.5148 32.3948 7.481 32.4326C7.481 32.5083 7.481 32.5839 7.481 32.6596C7.481 32.7352 7.481 32.8109 7.481 32.8865C7.4473 32.9243 7.4135 32.9622 7.3797 33C7.3122 33 7.2447 33 7.1772 33C7.1097 33 7.0422 33 6.9747 33C6.9072 33 6.8397 33 6.7722 33C6.7046 33 6.6371 33 6.5696 33C6.5021 33 6.4346 33 6.3671 33C6.2996 33 6.2321 33 6.1646 33C6.097 33 6.0295 33 5.962 33C5.8945 33 5.827 33 5.7595 33C5.692 33 5.6245 33 5.557 33C5.4895 33 5.4219 33 5.3544 33C5.2869 33 5.2194 33 5.1519 33C5.0844 33 5.0169 33 4.9494 33C4.8819 33 4.8143 33 4.7468 33C4.6793 33 4.6118 33 4.5443 33C4.4768 33 4.4093 33 4.3418 33C4.2743 33 4.2068 33 4.1392 33C4.0717 33 4.0042 33 3.9367 33C3.8692 33 3.8017 33 3.7342 33C3.6667 33 3.5992 33 3.5316 33C3.4641 33 3.3966 33 3.3291 33C3.2616 33 3.1941 33 3.1266 33C3.0591 33 2.9916 33 2.9241 33C2.8565 33 2.789 33 2.7215 33C2.654 33 2.5865 33 2.519 33C2.4515 33 2.384 33 2.3165 33C2.2489 33 2.1814 33 2.1139 33C2.0464 33 1.9789 33 1.9114 33C1.8439 33 1.7764 33 1.7089 33C1.6414 33 1.5738 33 1.5063 33C1.4388 33 1.3713 33 1.3038 33C1.2363 33 1.1688 33 1.1013 33C1.0675 32.9622 1.0338 32.9243 1 32.8865C1 32.8109 1 32.7352 1 32.6596C1.0338 32.6217 1.0675 32.5839 1.1013 32.5461C1.135 32.5083 1.1688 32.4704 1.2025 32.4326C1.2025 32.357 1.2025 32.2813 1.2025 32.2057C1.2363 32.1678 1.27 32.13 1.3038 32.0922C1.3376 32.0544 1.3713 32.0165 1.4051 31.9787C1.4051 31.9031 1.4051 31.8274 1.4051 31.7518C1.4388 31.7139 1.4726 31.6761 1.5063 31.6383C1.5401 31.6005 1.5738 31.5626 1.6076 31.5248C1.6076 31.4492 1.6076 31.3735 1.6076 31.2979C1.6414 31.26 1.6751 31.2222 1.7089 31.1844C1.7426 31.1466 1.7764 31.1087 1.8101 31.0709C1.8101 30.9953 1.8101 30.9196 1.8101 30.844C1.8101 30.7683 1.8101 30.6927 1.8101 30.617C1.8439 30.5792 1.8776 30.5414 1.9114 30.5035C1.9451 30.4657 1.9789 30.4279 2.0127 30.3901C2.0127 30.3144 2.0127 30.2388 2.0127 30.1631C2.0464 30.1253 2.0802 30.0875 2.1139 30.0496C2.1477 30.0118 2.1814 29.974 2.2152 29.9362C2.2152 29.8605 2.2152 29.7849 2.2152 29.7092C2.2489 29.6714 2.2827 29.6336 2.3165 29.5957C2.3502 29.5579 2.384 29.5201 2.4177 29.4823C2.4177 29.4066 2.4177 29.331 2.4177 29.2553C2.4177 29.1797 2.4177 29.104 2.4177 29.0284C2.4515 28.9905 2.4852 28.9527 2.519 28.9149C2.5527 28.8771 2.5865 28.8392 2.6203 28.8014C2.6203 28.7258 2.6203 28.6501 2.6203 28.5745C2.654 28.5366 2.6878 28.4988 2.7215 28.461C2.7553 28.4232 2.789 28.3853 2.8228 28.3475C2.8228 28.2719 2.8228 28.1962 2.8228 28.1206C2.8565 28.0827 2.8903 28.0449 2.9241 28.0071C2.9578 27.9693 2.9916 27.9314 3.0253 27.8936C3.0253 27.818 3.0253 27.7423 3.0253 27.6667C3.0591 27.6288 3.0928 27.591 3.1266 27.5532C3.1603 27.5154 3.1941 27.4775 3.2278 27.4397C3.2278 27.3641 3.2278 27.2884 3.2278 27.2128C3.2278 27.1371 3.2278 27.0615 3.2278 26.9858C3.2616 26.948 3.2954 26.9102 3.3291 26.8723C3.3629 26.8345 3.3966 26.7967 3.4304 26.7589C3.4304 26.6832 3.4304 26.6076 3.4304 26.5319C3.4641 26.4941 3.4979 26.4563 3.5316 26.4184C3.5654 26.3806 3.5992 26.3428 3.6329 26.305C3.6329 26.2293 3.6329 26.1537 3.6329 26.078C3.6667 26.0402 3.7004 26.0024 3.7342 25.9645C3.7679 25.9267 3.8017 25.8889 3.8354 25.8511C3.8354 25.7754 3.8354 25.6998 3.8354 25.6241C3.8692 25.5863 3.903 25.5485 3.9367 25.5106C3.9705 25.4728 4.0042 25.435 4.038 25.3972C4.038 25.3215 4.038 25.2459 4.038 25.1702C4.038 25.0946 4.038 25.0189 4.038 24.9433C4.0717 24.9054 4.1055 24.8676 4.1392 24.8298C4.173 24.792 4.2068 24.7541 4.2405 24.7163C4.2405 24.6407 4.2405 24.565 4.2405 24.4894C4.2743 24.4515 4.308 24.4137 4.3418 24.3759C4.3755 24.3381 4.4093 24.3002 4.443 24.2624C4.443 24.1868 4.443 24.1111 4.443 24.0355C4.4768 23.9976 4.5105 23.9598 4.5443 23.922C4.5781 23.8842 4.6118 23.8463 4.6456 23.8085C4.6456 23.7329 4.6456 23.6572 4.6456 23.5816C4.6793 23.5437 4.7131 23.5059 4.7468 23.4681C4.7806 23.4303 4.8143 23.3924 4.8481 23.3546C4.8481 23.279 4.8481 23.2033 4.8481 23.1277C4.8819 23.0898 4.9156 23.052 4.9494 23.0142C4.9831 22.9764 5.0169 22.9385 5.0506 22.9007C5.0506 22.8251 5.0506 22.7494 5.0506 22.6738C5.0844 22.6359 5.1181 22.5981 5.1519 22.5603C5.1857 22.5225 5.2194 22.4846 5.2532 22.4468C5.2532 22.3712 5.2532 22.2955 5.2532 22.2199C5.2869 22.182 5.3207 22.1442 5.3544 22.1064C5.3882 22.0686 5.4219 22.0307 5.4557 21.9929C5.4557 21.9173 5.4557 21.8416 5.4557 21.766C5.4895 21.7281 5.5232 21.6903 5.557 21.6525C5.5907 21.6147 5.6245 21.5768 5.6582 21.539C5.6582 21.4634 5.6582 21.3877 5.6582 21.3121C5.692 21.2742 5.7257 21.2364 5.7595 21.1986C5.7932 21.1608 5.827 21.1229 5.8608 21.0851C5.8608 21.0095 5.8608 20.9338 5.8608 20.8582C5.8608 20.7825 5.8608 20.7069 5.8608 20.6312C5.8945 20.5934 5.9283 20.5556 5.962 20.5177C5.9958 20.4799 6.0295 20.4421 6.0633 20.4043C6.0633 20.3286 6.0633 20.253 6.0633 20.1773C6.097 20.1395 6.1308 20.1017 6.1646 20.0638C6.1983 20.026 6.2321 19.9882 6.2658 19.9504C6.2658 19.8747 6.2658 19.7991 6.2658 19.7234C6.2996 19.6856 6.3333 19.6478 6.3671 19.6099C6.4008 19.5721 6.4346 19.5343 6.4684 19.4965C6.4684 19.4208 6.4684 19.3452 6.4684 19.2695C6.5021 19.2317 6.5359 19.1939 6.5696 19.156C6.6034 19.1182 6.6371 19.0804 6.6709 19.0426C6.6709 18.9669 6.6709 18.8913 6.6709 18.8156C6.6709 18.74 6.6709 18.6643 6.6709 18.5887C6.7046 18.5508 6.7384 18.513 6.7722 18.4752C6.8059 18.4374 6.8397 18.3995 6.8734 18.3617C6.8734 18.2861 6.8734 18.2104 6.8734 18.1348C6.9072 18.0969 6.9409 18.0591 6.9747 18.0213C7.0084 17.9835 7.0422 17.9456 7.0759 17.9078C7.0759 17.8322 7.0759 17.7565 7.0759 17.6809C7.1097 17.643 7.1435 17.6052 7.1772 17.5674C7.211 17.5296 7.2447 17.4917 7.2785 17.4539C7.2785 17.3783 7.2785 17.3026 7.2785 17.227C7.3122 17.1891 7.346 17.1513 7.3797 17.1135C7.4135 17.0757 7.4473 17.0378 7.481 17C7.481 16.9243 7.481 16.8487 7.481 16.773C7.481 16.6974 7.481 16.6217 7.481 16.5461C7.5148 16.5083 7.5485 16.4704 7.5823 16.4326C7.616 16.3948 7.6498 16.357 7.6835 16.3191C7.6835 16.2435 7.6835 16.1678 7.6835 16.0922C7.7173 16.0544 7.7511 16.0165 7.7848 15.9787C7.8186 15.9409 7.8523 15.9031 7.8861 15.8652C7.8861 15.7896 7.8861 15.7139 7.8861 15.6383C7.9198 15.6005 7.9536 15.5626 7.9873 15.5248C8.0211 15.487 8.0549 15.4492 8.0886 15.4113C8.0886 15.3357 8.0886 15.26 8.0886 15.1844C8.1224 15.1466 8.1561 15.1087 8.1899 15.0709C8.2236 15.0331 8.2574 14.9953 8.2911 14.9574C8.2911 14.8818 8.2911 14.8061 8.2911 14.7305C8.3249 14.6927 8.3586 14.6548 8.3924 14.617C8.4262 14.5792 8.4599 14.5414 8.4937 14.5035C8.4937 14.4279 8.4937 14.3522 8.4937 14.2766C8.4937 14.2009 8.4937 14.1253 8.4937 14.0496C8.5274 14.0118 8.5612 13.974 8.5949 13.9362C8.6287 13.8983 8.6624 13.8605 8.6962 13.8227C8.6962 13.747 8.6962 13.6714 8.6962 13.5957C8.73 13.5579 8.7637 13.5201 8.7975 13.4823C8.8312 13.4444 8.865 13.4066 8.8987 13.3688C8.8987 13.2931 8.8987 13.2175 8.8987 13.1418C8.9325 13.104 8.9662 13.0662 9 13.0284C9.0338 12.9905 9.0675 12.9527 9.1013 12.9149C9.1013 12.8392 9.1013 12.7636 9.1013 12.6879C9.135 12.6501 9.1688 12.6123 9.2025 12.5745C9.2363 12.5366 9.27 12.4988 9.3038 12.461C9.3038 12.3853 9.3038 12.3097 9.3038 12.234C9.3376 12.1962 9.3713 12.1584 9.4051 12.1206C9.4388 12.0827 9.4726 12.0449 9.5063 12.0071C9.5063 11.9314 9.5063 11.8558 9.5063 11.7801C9.5063 11.7045 9.5063 11.6288 9.5063 11.5532C9.5401 11.5154 9.5738 11.4775 9.6076 11.4397C9.6414 11.4019 9.6751 11.3641 9.7089 11.3262C9.7089 11.2506 9.7089 11.1749 9.7089 11.0993C9.7426 11.0615 9.7764 11.0236 9.8101 10.9858C9.8439 10.948 9.8776 10.9102 9.9114 10.8723C9.9114 10.7967 9.9114 10.721 9.9114 10.6454C9.9451 10.6076 9.9789 10.5697 10.0127 10.5319C10.0464 10.4941 10.0802 10.4563 10.1139 10.4184C10.1139 10.3428 10.1139 10.2671 10.1139 10.1915C10.1477 10.1537 10.1814 10.1158 10.2152 10.078C10.2489 10.0402 10.2827 10.0024 10.3165 9.9645C10.3165 9.8889 10.3165 9.8132 10.3165 9.7376C10.3165 9.6619 10.3165 9.5863 10.3165 9.5106C10.3502 9.4728 10.384 9.435 10.4177 9.3972C10.4515 9.3593 10.4852 9.3215 10.519 9.2837C10.519 9.208 10.519 9.1324 10.519 9.0567C10.5527 9.0189 10.5865 8.9811 10.6203 8.9433C10.654 8.9054 10.6878 8.8676 10.7215 8.8298C10.7215 8.7541 10.7215 8.6785 10.7215 8.6028C10.7553 8.565 10.789 8.5272 10.8228 8.4894C10.8565 8.4515 10.8903 8.4137 10.9241 8.3759C10.9241 8.3002 10.9241 8.2246 10.9241 8.1489C10.9578 8.1111 10.9916 8.0733 11.0253 8.0355C11.0591 7.9976 11.0928 7.9598 11.1266 7.922C11.1266 7.8463 11.1266 7.7707 11.1266 7.695C11.1603 7.6572 11.1941 7.6194 11.2278 7.5816C11.2616 7.5437 11.2954 7.5059 11.3291 7.4681C11.3291 7.3924 11.3291 7.3168 11.3291 7.2411C11.3629 7.2033 11.3966 7.1655 11.4304 7.1277C11.4641 7.0898 11.4979 7.052 11.5316 7.0142C11.5316 6.9385 11.5316 6.8629 11.5316 6.7872C11.5654 6.7494 11.5992 6.7116 11.6329 6.6738C11.6667 6.6359 11.7004 6.5981 11.7342 6.5603C11.7342 6.4846 11.7342 6.409 11.7342 6.3333C11.7342 6.2577 11.7342 6.182 11.7342 6.1064C11.7679 6.0686 11.8017 6.0307 11.8354 5.9929C11.8692 5.9551 11.903 5.9173 11.9367 5.8794C11.9367 5.8038 11.9367 5.7281 11.9367 5.6525C11.9705 5.6147 12.0042 5.5768 12.038 5.539C12.0717 5.5012 12.1055 5.4634 12.1392 5.4255C12.1392 5.3499 12.1392 5.2742 12.1392 5.1986C12.173 5.1608 12.2068 5.1229 12.2405 5.0851C12.2743 5.0473 12.308 5.0095 12.3418 4.9716C12.3418 4.896 12.3418 4.8203 12.3418 4.7447C12.3755 4.7069 12.4093 4.669 12.443 4.6312C12.4768 4.5934 12.5105 4.5556 12.5443 4.5177C12.5443 4.4421 12.5443 4.3664 12.5443 4.2908C12.5781 4.253 12.6118 4.2151 12.6456 4.1773C12.6793 4.1395 12.7131 4.1017 12.7468 4.0638C12.7468 3.9882 12.7468 3.9125 12.7468 3.8369C12.7468 3.7612 12.7468 3.6856 12.7468 3.6099C12.7806 3.5721 12.8143 3.5343 12.8481 3.4965C12.8819 3.4586 12.9156 3.4208 12.9494 3.383C12.9494 3.3073 12.9494 3.2317 12.9494 3.156C12.9831 3.1182 13.0169 3.0804 13.0506 3.0426C13.0844 3.0047 13.1181 2.9669 13.1519 2.9291C13.1519 2.8534 13.1519 2.7778 13.1519 2.7021C13.1857 2.6643 13.2194 2.6265 13.2532 2.5887C13.2869 2.5508 13.3207 2.513 13.3544 2.4752C13.3544 2.3995 13.3544 2.3239 13.3544 2.2482C13.3882 2.2104 13.4219 2.1726 13.4557 2.1348C13.4895 2.0969 13.5232 2.0591 13.557 2.0213C13.557 1.9456 13.557 1.87 13.557 1.7943C13.5907 1.7565 13.6245 1.7187 13.6582 1.6809C13.692 1.643 13.7257 1.6052 13.7595 1.5674C13.7595 1.4917 13.7595 1.4161 13.7595 1.3404C13.7595 1.2648 13.7595 1.1891 13.7595 1.1135C13.7932 1.0757 13.827 1.0378 13.8608 1C13.9283 1 13.9958 1 14.0633 1C14.1308 1 14.1983 1 14.2658 1C14.3333 1 14.4008 1 14.4684 1C14.5359 1 14.6034 1 14.6709 1C14.7384 1 14.8059 1 14.8734 1C14.9409 1 15.0084 1 15.0759 1C15.1435 1 15.211 1 15.2785 1C15.346 1 15.4135 1 15.481 1C15.5485 1 15.616 1 15.6835 1C15.7511 1 15.8186 1 15.8861 1C15.9536 1 16.0211 1 16.0886 1C16.1561 1 16.2236 1 16.2911 1C16.3586 1 16.4262 1 16.4937 1C16.5612 1 16.6287 1 16.6962 1C16.7637 1 16.8312 1 16.8987 1C16.9662 1 17.0338 1 17.1013 1C17.1688 1 17.2363 1 17.3038 1C17.3713 1 17.4388 1 17.5063 1C17.5738 1 17.6414 1 17.7089 1C17.7764 1 17.8439 1 17.9114 1C17.9789 1 18.0464 1 18.1139 1C18.1814 1 18.2489 1 18.3165 1C18.384 1 18.4515 1 18.519 1C18.5865 1 18.654 1 18.7215 1C18.789 1 18.8565 1 18.9241 1C18.9916 1 19.0591 1 19.1266 1C19.1941 1 19.2616 1 19.3291 1C19.3966 1 19.4641 1 19.5316 1C19.5992 1 19.6667 1 19.7342 1C19.8017 1 19.8692 1 19.9367 1C20.0042 1 20.0717 1 20.1392 1C20.173 1.0378 20.2068 1.0757 20.2405 1.1135C20.2405 1.1891 20.2405 1.2648 20.2405 1.3404C20.2743 1.3783 20.308 1.4161 20.3418 1.4539C20.3755 1.4917 20.4093 1.5296 20.443 1.5674C20.443 1.643 20.443 1.7187 20.443 1.7943C20.4768 1.8322 20.5105 1.87 20.5443 1.9078C20.5781 1.9456 20.6118 1.9835 20.6456 2.0213C20.6456 2.0969 20.6456 2.1726 20.6456 2.2482C20.6793 2.2861 20.7131 2.3239 20.7468 2.3617C20.7806 2.3995 20.8143 2.4374 20.8481 2.4752C20.8481 2.5508 20.8481 2.6265 20.8481 2.7021C20.8819 2.74 20.9156 2.7778 20.9494 2.8156C20.9831 2.8534 21.0169 2.8913 21.0506 2.9291C21.0506 3.0047 21.0506 3.0804 21.0506 3.156C21.0506 3.2317 21.0506 3.3073 21.0506 3.383C21.0844 3.4208 21.1181 3.4586 21.1519 3.4965C21.1857 3.5343 21.2194 3.5721 21.2532 3.6099C21.2532 3.6856 21.2532 3.7612 21.2532 3.8369C21.2869 3.8747 21.3207 3.9125 21.3544 3.9504C21.3882 3.9882 21.4219 4.026 21.4557 4.0638C21.4557 4.1395 21.4557 4.2151 21.4557 4.2908C21.4895 4.3286 21.5232 4.3664 21.557 4.4043C21.5907 4.4421 21.6245 4.4799 21.6582 4.5177C21.6582 4.5934 21.6582 4.669 21.6582 4.7447C21.692 4.7825 21.7257 4.8203 21.7595 4.8582C21.7932 4.896 21.827 4.9338 21.8608 4.9716C21.8608 5.0473 21.8608 5.1229 21.8608 5.1986C21.8945 5.2364 21.9283 5.2742 21.962 5.3121C21.9958 5.3499 22.0295 5.3877 22.0633 5.4255C22.0633 5.5012 22.0633 5.5768 22.0633 5.6525C22.0633 5.7281 22.0633 5.8038 22.0633 5.8794C22.097 5.9173 22.1308 5.9551 22.1646 5.9929C22.1983 6.0307 22.2321 6.0686 22.2658 6.1064C22.2658 6.182 22.2658 6.2577 22.2658 6.3333C22.2996 6.3712 22.3333 6.409 22.3671 6.4468C22.4008 6.4846 22.4346 6.5225 22.4684 6.5603C22.4684 6.6359 22.4684 6.7116 22.4684 6.7872C22.5021 6.8251 22.5359 6.8629 22.5696 6.9007C22.6034 6.9385 22.6371 6.9764 22.6709 7.0142C22.6709 7.0898 22.6709 7.1655 22.6709 7.2411C22.6709 7.3168 22.6709 7.3924 22.6709 7.4681C22.7046 7.5059 22.7384 7.5437 22.7722 7.5816C22.8059 7.6194 22.8397 7.6572 22.8734 7.695C22.8734 7.7707 22.8734 7.8463 22.8734 7.922C22.9072 7.9598 22.9409 7.9976 22.9747 8.0355C23.0084 8.0733 23.0422 8.1111 23.0759 8.1489C23.0759 8.2246 23.0759 8.3002 23.0759 8.3759C23.1097 8.4137 23.1435 8.4515 23.1772 8.4894C23.211 8.5272 23.2447 8.565 23.2785 8.6028C23.2785 8.6785 23.2785 8.7541 23.2785 8.8298C23.3122 8.8676 23.346 8.9054 23.3797 8.9433C23.4135 8.9811 23.4473 9.0189 23.481 9.0567C23.481 9.1324 23.481 9.208 23.481 9.2837C23.481 9.3593 23.481 9.435 23.481 9.5106C23.5148 9.5485 23.5485 9.5863 23.5823 9.6241C23.616 9.6619 23.6498 9.6998 23.6835 9.7376C23.6835 9.8132 23.6835 9.8889 23.6835 9.9645C23.7173 10.0024 23.7511 10.0402 23.7848 10.078C23.8186 10.1158 23.8523 10.1537 23.8861 10.1915C23.8861 10.2671 23.8861 10.3428 23.8861 10.4184C23.9198 10.4563 23.9536 10.4941 23.9873 10.5319C24.0211 10.5697 24.0549 10.6076 24.0886 10.6454C24.0886 10.721 24.0886 10.7967 24.0886 10.8723C24.1224 10.9102 24.1561 10.948 24.1899 10.9858C24.2236 11.0236 24.2574 11.0615 24.2911 11.0993C24.2911 11.1749 24.2911 11.2506 24.2911 11.3262C24.3249 11.3641 24.3586 11.4019 24.3924 11.4397C24.4262 11.4775 24.4599 11.5154 24.4937 11.5532C24.4937 11.6288 24.4937 11.7045 24.4937 11.7801C24.4937 11.8558 24.4937 11.9314 24.4937 12.0071C24.5274 12.0449 24.5612 12.0827 24.5949 12.1206C24.6287 12.1584 24.6624 12.1962 24.6962 12.234C24.6962 12.3097 24.6962 12.3853 24.6962 12.461C24.73 12.4988 24.7637 12.5366 24.7975 12.5745C24.8312 12.6123 24.865 12.6501 24.8987 12.6879C24.8987 12.7636 24.8987 12.8392 24.8987 12.9149C24.9325 12.9527 24.9662 12.9905 25 13.0284C25.0338 13.0662 25.0675 13.104 25.1013 13.1418C25.1013 13.2175 25.1013 13.2931 25.1013 13.3688C25.135 13.4066 25.1688 13.4444 25.2025 13.4823C25.2363 13.5201 25.27 13.5579 25.3038 13.5957C25.3038 13.6714 25.3038 13.747 25.3038 13.8227C25.3038 13.8983 25.3038 13.974 25.3038 14.0496C25.3376 14.0875 25.3713 14.1253 25.4051 14.1631C25.4388 14.2009 25.4726 14.2388 25.5063 14.2766C25.5063 14.3522 25.5063 14.4279 25.5063 14.5035C25.5401 14.5414 25.5738 14.5792 25.6076 14.617C25.6414 14.6548 25.6751 14.6927 25.7089 14.7305C25.7089 14.8061 25.7089 14.8818 25.7089 14.9574C25.7426 14.9953 25.7764 15.0331 25.8101 15.0709C25.8439 15.1087 25.8776 15.1466 25.9114 15.1844C25.9114 15.26 25.9114 15.3357 25.9114 15.4113C25.9451 15.4492 25.9789 15.487 26.0127 15.5248C26.0464 15.5626 26.0802 15.6005 26.1139 15.6383C26.1139 15.7139 26.1139 15.7896 26.1139 15.8652C26.1139 15.9409 26.1139 16.0165 26.1139 16.0922C26.1477 16.13 26.1814 16.1678 26.2152 16.2057C26.2489 16.2435 26.2827 16.2813 26.3165 16.3191C26.3165 16.3948 26.3165 16.4704 26.3165 16.5461C26.3502 16.5839 26.384 16.6217 26.4177 16.6596C26.4515 16.6974 26.4852 16.7352 26.519 16.773C26.519 16.8487 26.519 16.9243 26.519 17C26.5527 17.0378 26.5865 17.0757 26.6203 17.1135C26.654 17.1513 26.6878 17.1891 26.7215 17.227C26.7215 17.3026 26.7215 17.3783 26.7215 17.4539C26.7215 17.5296 26.7215 17.6052 26.7215 17.6809C26.7553 17.7187 26.789 17.7565 26.8228 17.7943C26.8565 17.8322 26.8903 17.87 26.9241 17.9078C26.9241 17.9835 26.9241 18.0591 26.9241 18.1348C26.9578 18.1726 26.9916 18.2104 27.0253 18.2482C27.0591 18.2861 27.0928 18.3239 27.1266 18.3617C27.1266 18.4374 27.1266 18.513 27.1266 18.5887C27.1603 18.6265 27.1941 18.6643 27.2278 18.7021C27.2616 18.74 27.2954 18.7778 27.3291 18.8156C27.3291 18.8913 27.3291 18.9669 27.3291 19.0426C27.3629 19.0804 27.3966 19.1182 27.4304 19.156C27.4641 19.1939 27.4979 19.2317 27.5316 19.2695C27.5316 19.3452 27.5316 19.4208 27.5316 19.4965C27.5654 19.5343 27.5992 19.5721 27.6329 19.6099C27.6667 19.6478 27.7004 19.6856 27.7342 19.7234C27.7342 19.7991 27.7342 19.8747 27.7342 19.9504C27.7679 19.9882 27.8017 20.026 27.8354 20.0638C27.8692 20.1017 27.903 20.1395 27.9367 20.1773C27.9367 20.253 27.9367 20.3286 27.9367 20.4043C27.9367 20.4799 27.9367 20.5556 27.9367 20.6312C27.9705 20.669 28.0042 20.7069 28.038 20.7447C28.0717 20.7825 28.1055 20.8203 28.1392 20.8582C28.1392 20.9338 28.1392 21.0095 28.1392 21.0851C28.173 21.1229 28.2068 21.1608 28.2405 21.1986C28.2743 21.2364 28.308 21.2742 28.3418 21.3121C28.3418 21.3877 28.3418 21.4634 28.3418 21.539C28.3755 21.5768 28.4093 21.6147 28.443 21.6525C28.4768 21.6903 28.5105 21.7281 28.5443 21.766C28.5443 21.8416 28.5443 21.9173 28.5443 21.9929C28.5781 22.0307 28.6118 22.0686 28.6456 22.1064C28.6793 22.1442 28.7131 22.182 28.7468 22.2199C28.7468 22.2955 28.7468 22.3712 28.7468 22.4468C28.7468 22.5225 28.7468 22.5981 28.7468 22.6738C28.7806 22.7116 28.8143 22.7494 28.8481 22.7872C28.8819 22.8251 28.9156 22.8629 28.9494 22.9007C28.9494 22.9764 28.9494 23.052 28.9494 23.1277C28.9831 23.1655 29.0169 23.2033 29.0506 23.2411C29.0844 23.279 29.1181 23.3168 29.1519 23.3546C29.1519 23.4303 29.1519 23.5059 29.1519 23.5816C29.1857 23.6194 29.2194 23.6572 29.2532 23.695C29.2869 23.7329 29.3207 23.7707 29.3544 23.8085C29.3544 23.8842 29.3544 23.9598 29.3544 24.0355C29.3882 24.0733 29.4219 24.1111 29.4557 24.1489C29.4895 24.1868 29.5232 24.2246 29.557 24.2624C29.557 24.3381 29.557 24.4137 29.557 24.4894C29.557 24.565 29.557 24.6407 29.557 24.7163C29.5907 24.7541 29.6245 24.792 29.6582 24.8298C29.692 24.8676 29.7257 24.9054 29.7595 24.9433C29.7595 25.0189 29.7595 25.0946 29.7595 25.1702C29.7932 25.208 29.827 25.2459 29.8608 25.2837C29.8945 25.3215 29.9283 25.3593 29.962 25.3972C29.962 25.4728 29.962 25.5485 29.962 25.6241C29.9958 25.6619 30.0295 25.6998 30.0633 25.7376C30.097 25.7754 30.1308 25.8132 30.1646 25.8511C30.1646 25.9267 30.1646 26.0024 30.1646 26.078C30.1983 26.1158 30.2321 26.1537 30.2658 26.1915C30.2996 26.2293 30.3333 26.2671 30.3671 26.305C30.3671 26.3806 30.3671 26.4563 30.3671 26.5319C30.3671 26.6076 30.3671 26.6832 30.3671 26.7589C30.4008 26.7967 30.4346 26.8345 30.4684 26.8723C30.5021 26.9102 30.5359 26.948 30.5696 26.9858C30.5696 27.0615 30.5696 27.1371 30.5696 27.2128C30.6034 27.2506 30.6371 27.2884 30.6709 27.3262C30.7046 27.3641 30.7384 27.4019 30.7722 27.4397C30.7722 27.5154 30.7722 27.591 30.7722 27.6667C30.8059 27.7045 30.8397 27.7423 30.8734 27.7801C30.9072 27.818 30.9409 27.8558 30.9747 27.8936C30.9747 27.9693 30.9747 28.0449 30.9747 28.1206C31.0084 28.1584 31.0422 28.1962 31.0759 28.234C31.1097 28.2719 31.1435 28.3097 31.1772 28.3475C31.1772 28.4232 31.1772 28.4988 31.1772 28.5745C31.211 28.6123 31.2447 28.6501 31.2785 28.6879C31.3122 28.7258 31.346 28.7636 31.3797 28.8014C31.3797 28.8771 31.3797 28.9527 31.3797 29.0284C31.3797 29.104 31.3797 29.1797 31.3797 29.2553C31.4135 29.2931 31.4473 29.331 31.481 29.3688C31.5148 29.4066 31.5485 29.4444 31.5823 29.4823C31.5823 29.5579 31.5823 29.6336 31.5823 29.7092C31.616 29.747 31.6498 29.7849 31.6835 29.8227C31.7173 29.8605 31.7511 29.8983 31.7848 29.9362C31.7848 30.0118 31.7848 30.0875 31.7848 30.1631C31.8186 30.2009 31.8523 30.2388 31.8861 30.2766C31.9198 30.3144 31.9536 30.3522 31.9873 30.3901C31.9873 30.4657 31.9873 30.5414 31.9873 30.617C32.0211 30.6548 32.0549 30.6927 32.0886 30.7305C32.1224 30.7683 32.1561 30.8061 32.1899 30.844C32.1899 30.9196 32.1899 30.9953 32.1899 31.0709C32.2236 31.1087 32.2574 31.1466 32.2911 31.1844C32.3249 31.2222 32.3586 31.26 32.3924 31.2979C32.3924 31.3735 32.3924 31.4492 32.3924 31.5248C32.3924 31.6005 32.3924 31.6761 32.3924 31.7518C32.4262 31.7896 32.4599 31.8274 32.4937 31.8652C32.5274 31.9031 32.5612 31.9409 32.5949 31.9787C32.5949 32.0544 32.5949 32.13 32.5949 32.2057C32.6287 32.2435 32.6624 32.2813 32.6962 32.3191C32.73 32.357 32.7637 32.3948 32.7975 32.4326C32.7975 32.5083 32.7975 32.5839 32.7975 32.6596C32.8312 32.6974 32.865 32.7352 32.8987 32.773C32.9325 32.8109 32.9662 32.8487 33 32.8865C32.9662 32.9243 32.9325 32.9622 32.8987 33Z" style=""/></svg>